<?xml version="1.0" encoding="UTF-8"?>
<svg xmlns="http://www.w3.org/2000/svg" width="512" height="512" viewBox="0 0 512 512" role="img" aria-label="Naver crawler program icon">
  <title>Naver crawler program icon</title>
  <desc>Flat vector icon of a monitor with a spider crawler badge containing the letter N.</desc>

  <!-- Colors -->
  <defs>
    <style>
      .stroke { stroke: #111; stroke-width: 16; stroke-linecap: round; stroke-linejoin: round; }
      .green  { fill: #03C75A; }  <!-- Naver green (approx) -->
      .dark   { fill: #111; }
      .light  { fill: #ffffff; }
      .none   { fill: none; }
    </style>
    <!-- Shadow filter for subtle depth (optional, very light) -->
    <filter id="softShadow" x="-20%" y="-20%" width="140%" height="140%">
      <feOffset dx="0" dy="4" in="SourceAlpha" result="off"/>
      <feGaussianBlur in="off" stdDeviation="4" result="blur"/>
      <feColorMatrix in="blur" type="matrix" values="0 0 0 0 0  0 0 0 0 0  0 0 0 0 0  0 0 0 0.15 0" result="shadow"/>
      <feBlend in="SourceGraphic" in2="shadow" mode="normal"/>
    </filter>
  </defs>

  <!-- Monitor -->
  <g filter="url(#softShadow)">
    <!-- Outer monitor body -->
    <rect x="64" y="84" rx="28" ry="28" width="320" height="240" class="green stroke"/>
    <!-- Screen area -->
    <rect x="96" y="116" rx="16" ry="16" width="256" height="176" class="light stroke"/>

    <!-- UI elements on screen -->
    <rect x="120" y="140" rx="12" ry="12" width="208" height="36" class="none stroke"/>
    <rect x="120" y="192" rx="8"  ry="8"  width="160" height="20" class="none stroke"/>
    <rect x="120" y="224" rx="8"  ry="8"  width="120" height="20" class="none stroke"/>

    <!-- Stand -->
    <rect x="192" y="332" width="64" height="40" rx="12" ry="12" class="green stroke"/>
    <rect x="144" y="372" width="160" height="36" rx="18" ry="18" class="green stroke"/>
  </g>

  <!-- Spider Crawler Badge -->
  <g transform="translate(300,260)">
    <!-- Legs -->
    <path d="M-12 -8 L-56 -28" class="stroke none"/>
    <path d="M-12  -2 L-62  0" class="stroke none"/>
    <path d="M-12   8 L-56  28" class="stroke none"/>
    <path d="M 12  -8 L 56 -28" class="stroke none"/>
    <path d="M 12  -2 L 62  0" class="stroke none"/>
    <path d="M 12   8 L 56  28" class="stroke none"/>

    <!-- Body -->
    <circle cx="0" cy="0" r="52" class="green stroke"/>

    <!-- N letter (simple block, not official logotype) -->
    <path d="M-20 24 V-24 H-4 L20 12 V-24 H36 V24 H20 L-4 -12 V24 Z" class="light"/>
  </g>

</svg>
