<?xml version="1.0" encoding="UTF-8"?>
<svg version="1.1" xmlns="http://www.w3.org/2000/svg" width="1024" height="1024">
<path d="M0 0 C337.92 0 675.84 0 1024 0 C1024 337.92 1024 675.84 1024 1024 C686.08 1024 348.16 1024 0 1024 C0 686.08 0 348.16 0 0 Z " fill="#E05C09" transform="translate(0,0)"/>
<path d="M0 0 C337.92 0 675.84 0 1024 0 C1024 337.92 1024 675.84 1024 1024 C686.08 1024 348.16 1024 0 1024 C0 686.08 0 348.16 0 0 Z M447.875 98.1875 C446.57860596 98.40108154 445.28221191 98.61466309 443.9465332 98.8347168 C380.23281355 109.59945312 317.86310373 135.3874257 266 174 C264.85173356 174.84788796 263.70330999 175.69556319 262.5546875 176.54296875 C190.210081 230.29260606 138.80600062 303.94727812 99 451 C98.8551416 452.24942383 98.7102832 453.49884766 98.56103516 454.78613281 C98.41327637 456.02459961 98.26551758 457.26306641 98.11328125 458.5390625 C97.99380127 459.65748535 97.87432129 460.7759082 97.7512207 461.92822266 C96.87733853 465.5015686 95.38756252 467.25059751 93 470 C92.09353712 472.57223559 91.37959536 474.98665393 90.75 477.625 C90.55237061 478.41189209 90.35474121 479.19878418 90.15112305 480.00952148 C85.89470013 497.23351836 81.8035848 514.57296926 78.41821289 531.98950195 C77.85019446 534.7201685 77.0849325 537.38347801 76.3125 540.0625 C74.60072374 546.86593728 74.51254493 551.96788005 77.625 558.3125 C80.55836113 561.6318297 82.99928205 563.10875152 87 565 C87.99 565 88.98 565 90 565 C89.67 565.99 89.34 566.98 89 568 C88.89529266 570.16138062 88.85133615 572.32586663 88.83886719 574.48974609 C88.83390228 575.14585876 88.82893738 575.80197144 88.82382202 576.47796631 C88.80917457 578.65980083 88.80238072 580.84156173 88.796875 583.0234375 C88.79404762 583.77883442 88.79122025 584.53423134 88.78830719 585.31251907 C88.77327553 589.34002277 88.76408159 593.36749055 88.75976562 597.39501953 C88.75544484 600.66857446 88.74181433 603.94185627 88.71875 607.21533203 C88.41586426 651.08675486 91.72876317 697.98477933 109.08105469 738.82666016 C110.19914332 741.47098135 111.2720154 744.13268689 112.3515625 746.79296875 C113.21110345 748.86299328 114.07308199 750.93200733 114.9375 753 C115.33235596 753.96848877 115.72721191 754.93697754 116.1340332 755.93481445 C119.28774009 763.29772073 123.24836705 770.78590829 131 774 C134.8086365 774.32703855 138.52661332 774.09550633 141.66015625 771.765625 C146.50156028 766.28905135 146.16526395 760.31328871 146.125 753.4375 C146.12306641 752.63030518 146.12113281 751.82311035 146.11914062 750.99145508 C146.08824703 746.69509965 145.93272746 742.46532005 145.5 738.1875 C144.59159614 729.16743355 144.91729159 720.05466222 145 711 C145.30067383 711.5669458 145.60134766 712.1338916 145.91113281 712.71801758 C155.05993516 729.90054715 164.51079455 746.74916559 176.640625 762.02734375 C178.97701392 764.97103906 181.2112565 767.97246674 183.4375 771 C191.03670211 781.15907442 199.44850358 790.63820951 208 800 C208.87527344 800.96808594 209.75054687 801.93617188 210.65234375 802.93359375 C218.28841529 811.35793101 226.05237789 819.66271394 234.71484375 827.05078125 C236.47300771 828.55048008 238.2115625 830.07319016 239.94140625 831.60546875 C249.50839129 840.03437378 259.64118662 847.57645661 270 855 C270.58604004 855.4237793 271.17208008 855.84755859 271.77587891 856.28417969 C282.14258041 863.76504149 293.060028 870.39992263 304 877 C305.01803711 877.61875 305.01803711 877.61875 306.05664062 878.25 C367.24574146 915.15567757 441.11045805 932.19904032 512 932.25 C513.65458221 932.25200912 513.65458221 932.25200912 515.34259033 932.25405884 C533.43125558 932.24930961 551.0616244 931.39159155 569 929 C570.73037712 928.79220431 572.46083889 928.5851116 574.19140625 928.37890625 C641.08156528 919.86314387 709.8202628 892.82244845 763 851 C764.57814753 849.80995399 766.15630629 848.61992274 767.73486328 847.43041992 C775.42567544 841.60220845 782.76682218 835.38420009 790 829 C790.74499756 828.34475342 791.48999512 827.68950684 792.25756836 827.0144043 C798.29052931 821.6531643 804.0754957 816.08047432 809.76928711 810.36108398 C811.19337492 808.93160283 812.62278044 807.50759489 814.05273438 806.08398438 C819.24481153 800.88467087 824.24913688 795.60462365 829 790 C829.92417714 788.93203023 830.84864057 787.86430812 831.7734375 786.796875 C898.42516039 709.02396532 931.90885908 605.29813377 928.88571167 477.90441895 C927.8119008 464.20130269 926.68877841 450.49430667 924 437 C923.65195313 435.25275635 923.65195313 435.25275635 923.296875 433.47021484 C919.71820281 415.73416895 915.52286969 398.24279045 910 381 C909.7107666 380.08589355 909.4215332 379.17178711 909.12353516 378.22998047 C894.62814669 332.95287905 871.56675257 291.15589579 842 254 C841.55076172 253.43152344 841.10152344 252.86304688 840.63867188 252.27734375 C838.14897234 249.1354824 835.58947181 246.05986969 833 243 C832.58379395 242.49500977 832.16758789 241.99001953 831.73876953 241.46972656 C824.35729283 232.51653867 816.38755355 224.19907553 808.1875 216 C807.69376892 215.50536255 807.20003784 215.0107251 806.69134521 214.50109863 C800.9728622 208.78380345 795.15412187 203.24808189 789 198 C787.95154899 197.07469937 786.90460109 196.14769198 785.859375 195.21875 C771.52688781 182.62527432 756.13800897 171.17726693 740 161 C739.30100586 160.5565625 738.60201172 160.113125 737.88183594 159.65625 C688.33062661 128.45653796 632.44941027 107.37049045 574.625 98.25 C572.7385376 97.95186401 572.7385376 97.95186401 570.81396484 97.64770508 C566.88116952 97.05430115 562.94467155 96.50712704 559 96 C557.90753464 95.85806213 557.90753464 95.85806213 556.79299927 95.71325684 C543.2301351 94.00836154 529.77046073 93.68847401 516.1105957 93.73925781 C512.70180345 93.74995511 509.29354181 93.7393065 505.88476562 93.7265625 C486.37992289 93.71292829 467.12709607 94.98961355 447.875 98.1875 Z " fill="#FEE7C3" transform="translate(0,0)"/>
<path d="M0 0 C5.14624904 1.89142859 5.14624904 1.89142859 10.515625 1.82885742 C12.89412168 0.63250485 15.07808812 -0.58525944 17.328125 -1.98364258 C34.55318649 -12.23330289 55.66986177 -14.49134282 75.203125 -9.60864258 C99.94376162 -2.23030882 118.16134109 14.78437094 130.265625 37.04760742 C134.37280755 45.34411618 136.57514039 53.83296977 138.515625 62.82885742 C138.692146 63.58835693 138.86866699 64.34785645 139.05053711 65.13037109 C140.0434694 70.89146329 139.76062411 76.80853417 139.765625 82.64135742 C139.76663712 83.69188797 139.76663712 83.69188797 139.76766968 84.76364136 C139.74168856 101.69094594 137.52192364 117.62795862 129.515625 132.82885742 C130.32515625 133.06991211 131.1346875 133.3109668 131.96875 133.55932617 C155.02351823 141.81130819 183.55108893 160.88447841 195.453125 182.82885742 C197.53144739 187.44102493 199.22302427 191.71986269 198.515625 196.82885742 C192.87639173 211.34591978 178.13118402 219.04636506 164.68359375 225.10473633 C157.68005625 228.1421006 150.60762067 231.00539833 143.515625 233.82885742 C142.68321289 234.16111328 141.85080078 234.49336914 140.99316406 234.83569336 C139.84799316 235.29250488 139.84799316 235.29250488 138.6796875 235.75854492 C137.97593994 236.03931885 137.27219238 236.32009277 136.54711914 236.609375 C134.71750799 237.33600172 132.88428365 238.05351246 131.05078125 238.77026367 C128.62189515 239.59590669 128.62189515 239.59590669 127.515625 240.82885742 C127.70130677 243.10946417 127.96458918 245.38378885 128.2578125 247.65307617 C128.34563995 248.35092728 128.43346741 249.04877838 128.5239563 249.76777649 C128.80763664 252.01800172 129.0985034 254.26721357 129.390625 256.51635742 C131.82218132 275.34741022 132.65233457 293.71460745 132.578125 312.70385742 C132.57309907 314.95255434 132.5685381 317.20125235 132.56445312 319.44995117 C132.55353617 324.90961072 132.53688501 330.36922886 132.515625 335.82885742 C133.6640815 335.53151451 133.6640815 335.53151451 134.83573914 335.22816467 C142.0594569 333.35815659 149.28351369 331.48946636 156.50795269 329.62224674 C160.22187968 328.66230042 163.93567458 327.70184928 167.64916992 326.74023438 C171.23445551 325.81183955 174.82008496 324.884784 178.40595436 323.95864677 C179.77237023 323.60548787 181.13866258 323.2518507 182.5048275 322.89772224 C184.42175228 322.40091746 186.33916257 321.90598714 188.2565918 321.41113281 C189.34691208 321.12911514 190.43723236 320.84709747 191.56059265 320.55653381 C207.23650643 316.69634177 224.12402899 318.51819194 238.3984375 326.35229492 C244.48690683 330.59849678 248.02379342 335.88524486 250.515625 342.82885742 C252.22263441 357.63831747 248.52305205 369.94105167 239.515625 381.82885742 C235.99028547 385.97819805 232.29980396 389.91567236 228.515625 393.82885742 C227.773125 394.62291992 227.030625 395.41698242 226.265625 396.23510742 C217.6460541 405.23495351 207.64900469 412.26047382 197.203125 418.95385742 C196.48205566 419.42025635 195.76098633 419.88665527 195.01806641 420.3671875 C180.3226249 429.59466946 164.92429779 435.41549391 148.515625 440.82885742 C146.46838792 441.51397433 144.42151016 442.20016593 142.375 442.88745117 C137.42591737 444.54696743 132.4722444 446.19199653 127.515625 447.82885742 C127.93714844 448.98643555 128.35867188 450.14401367 128.79296875 451.33666992 C129.3466213 452.87563634 129.89999183 454.41470425 130.453125 455.95385742 C130.73091797 456.7144043 131.00871094 457.47495117 131.29492188 458.25854492 C133.53661807 464.52449091 134.66603949 470.3358294 134.765625 477.01635742 C134.80429688 478.55356445 134.80429688 478.55356445 134.84375 480.12182617 C134.5449572 483.49747344 133.90727252 486.31246107 132.99511719 489.56054688 C132.7196405 490.54803421 132.44416382 491.53552155 132.16033936 492.55293274 C131.94758362 493.30398788 131.73482788 494.05504303 131.515625 494.82885742 C132.05986618 495.01296677 132.60410736 495.19707611 133.1648407 495.38676453 C181.18311428 511.63465368 181.18311428 511.63465368 204.16235352 519.78027344 C213.50522857 523.08835079 222.87021188 526.32604992 232.25 529.52807617 C235.8544036 530.76214832 239.45861623 531.99677693 243.06280518 533.23147583 C245.4360395 534.04230424 247.81034112 534.85001586 250.18572998 535.6545105 C253.50934548 536.78037037 256.82916104 537.91684276 260.1484375 539.05541992 C261.15283875 539.39236374 262.15723999 539.72930756 263.19207764 540.07646179 C264.11498596 540.39516739 265.03789429 540.71387299 265.98876953 541.04223633 C266.79428253 541.3161319 267.59979553 541.59002747 268.42971802 541.8722229 C270.515625 542.82885742 270.515625 542.82885742 273.515625 545.82885742 C268.235625 553.74885742 262.955625 561.66885742 257.515625 569.82885742 C257.185625 569.16885742 256.855625 568.50885742 256.515625 567.82885742 C257.453125 565.70385742 257.453125 565.70385742 258.515625 563.82885742 C257.96822159 563.71788223 257.42081818 563.60690704 256.85682678 563.49256897 C251.32489055 562.3239954 246.03988399 560.79502737 240.69921875 558.94995117 C239.86620743 558.66623154 239.03319611 558.3825119 238.17494202 558.0901947 C235.43251741 557.15413793 232.69274055 556.21060132 229.953125 555.26635742 C228.00524025 554.59845834 226.0573229 553.93065432 224.109375 553.26293945 C194.92301979 543.2372075 165.85646552 532.86470203 136.828125 522.39135742 C136.06951172 522.11773376 135.31089844 521.84411011 134.52929688 521.56219482 C132.41623337 520.79940915 130.30369281 520.03519787 128.19140625 519.27026367 C127.01489502 518.84430908 125.83838379 518.41835449 124.6262207 517.97949219 C121.515625 516.82885742 121.515625 516.82885742 118.84838867 515.61376953 C116.16873863 514.71213951 115.11422666 514.80289271 112.515625 515.82885742 C110.70750312 516.75249658 110.70750312 516.75249658 108.93359375 517.90307617 C108.2566748 518.32057129 107.57975586 518.73806641 106.88232422 519.16821289 C106.16318848 519.61310059 105.44405273 520.05798828 104.703125 520.51635742 C90.08235859 529.30885 74.46480995 534.79986074 57.515625 536.82885742 C88.55931804 546.99705807 119.60445335 557.16062117 150.67236328 567.25463867 C153.87427133 568.29504806 157.07576146 569.33672741 160.27685547 570.37963867 C174.99925706 575.17595846 189.7176218 579.96196945 204.55517578 584.39331055 C212.02945166 586.63820046 219.42174968 589.10400157 226.7824707 591.69702148 C232.49934782 593.6696592 232.49934782 593.6696592 238.515625 593.82885742 C236.8968285 597.98012698 233.84949128 600.68304143 230.703125 603.70385742 C226.7041949 607.56932509 223.01209532 611.49866313 219.515625 615.82885742 C214.3359375 614.10229492 209.15625 612.37573242 203.9765625 610.64916992 C203.35809952 610.4430307 202.73963654 610.23689148 202.10243225 610.02450562 C198.49877344 608.823351 194.89520485 607.62192651 191.29174805 606.42016602 C182.67238528 603.54592621 174.05220514 600.67417125 165.43036079 597.80738258 C121.34035604 583.14728548 77.32114363 568.32262048 33.515625 552.82885742 C34.20745989 556.99497804 36.34366599 560.44084774 38.40234375 564.05932617 C38.80080002 564.76284714 39.19925629 565.4663681 39.60978699 566.19120789 C43.72794818 573.35839179 48.27022789 580.21673171 52.91119385 587.05285645 C55.34960403 590.64697747 57.7651353 594.25645094 60.18359375 597.86401367 C60.65390015 598.56460907 61.12420654 599.26520447 61.60876465 599.98703003 C67.08956 608.15903145 72.4178045 616.41217231 77.515625 624.82885742 C78.00144043 625.62517578 78.48725586 626.42149414 78.98779297 627.24194336 C107.515625 674.35262785 107.515625 674.35262785 107.515625 694.82885742 C108.35867188 694.38413086 109.20171875 693.9394043 110.0703125 693.48120117 C111.71386719 692.63235352 111.71386719 692.63235352 113.390625 691.76635742 C114.48117187 691.19788086 115.57171875 690.6294043 116.6953125 690.04370117 C118.09136719 689.44235352 118.09136719 689.44235352 119.515625 688.82885742 C120.175625 689.15885742 120.835625 689.48885742 121.515625 689.82885742 C54.46812733 724.63286258 54.46812733 724.63286258 23.515625 723.82885742 C26.22661393 722.02153147 27.59457903 721.42028142 30.64453125 720.70776367 C31.49909912 720.49974121 32.35366699 720.29171875 33.23413086 720.07739258 C34.17264893 719.85100098 35.11116699 719.62460937 36.078125 719.39135742 C46.85777382 716.70021495 57.39872501 713.40508664 67.953125 709.95385742 C68.72584747 709.70121124 69.49856995 709.44856506 70.29470825 709.18826294 C74.7046396 707.74400529 79.11136454 706.29031191 83.515625 704.82885742 C81.97773402 695.68564282 80.31934696 686.96403769 76.828125 678.32885742 C76.47999756 677.44431885 76.13187012 676.55978027 75.77319336 675.6484375 C72.4862259 667.45504098 68.6907129 659.6010061 64.515625 651.82885742 C64.19577637 651.21864746 63.87592773 650.6084375 63.54638672 649.97973633 C56.53355679 636.63387365 47.96113012 624.29452427 39.515625 611.82885742 C4.05076025 559.34362674 4.05076025 559.34362674 6.515625 531.82885742 C7.5390625 528.82885742 7.5390625 528.82885742 8.515625 526.82885742 C7.05784721 526.16097685 5.5993367 525.49469579 4.140625 524.82885742 C3.13 524.36737305 2.119375 523.90588867 1.078125 523.43041992 C-1.43586421 522.3002274 -3.95265974 521.19093248 -6.484375 520.10229492 C-30.15036463 509.87621676 -52.96802033 497.6843724 -72.87109375 481.16577148 C-74.46015467 479.84892863 -76.06450255 478.55293392 -77.671875 477.25854492 C-96.61950528 461.82328585 -122.84376737 438.82150686 -125.70288086 412.84350586 C-126.41888159 400.25022893 -124.70270445 390.86924103 -116.4609375 380.92651367 C-107.19408423 371.09192828 -95.39680312 365.14706484 -81.87109375 364.52026367 C-80.30478558 364.47385698 -78.73836991 364.43096253 -77.171875 364.39135742 C-60.31285441 363.67485723 -47.28475032 358.78682939 -34.8671875 347.02807617 C-22.87316183 335.95818035 -8.9420873 330.0958044 7.36328125 330.40698242 C17.50573441 330.97215849 27.51431955 333.81799198 37.37646484 336.10229492 C54.8387507 340.14396258 71.55287887 340.98069786 89.390625 340.89135742 C91.1575508 340.88632761 92.924478 340.88176734 94.69140625 340.87768555 C98.96618126 340.86680832 103.24088708 340.84962719 107.515625 340.82885742 C110.53165557 297.03914771 107.06135425 253.97920264 89.49536133 213.33740234 C88.01717065 209.55260064 86.77740462 205.6903188 85.515625 201.82885742 C68.8483174 202.13214721 52.18163238 202.46064418 35.515625 202.82885742 C34.35359558 202.85432648 34.35359558 202.85432648 33.16809082 202.88031006 C-3.46101224 203.70029924 -39.71285554 207.62119047 -75.99859619 212.49615479 C-78.19043421 212.78951568 -80.38280753 213.07804959 -82.57568359 213.36352539 C-131.60777409 219.80166983 -182.54335624 230.39320731 -228.734375 248.41870117 C-232.2666903 249.78984526 -235.82659055 250.84297021 -239.484375 251.82885742 C-242.7921119 265.42938454 -245.83933794 279.08309311 -248.484375 292.82885742 C-248.62149902 293.53800293 -248.75862305 294.24714844 -248.89990234 294.9777832 C-257.71304178 342.9963412 -244.55125616 397.3556875 -217.171875 437.32885742 C-213.93043646 442.00356254 -210.62955432 446.63402405 -207.30078125 451.24682617 C-192.30906082 472.07247157 -178.07327006 496.40709901 -177.484375 522.82885742 C-177.43410156 524.09858398 -177.38382812 525.36831055 -177.33203125 526.67651367 C-176.64858428 550.6547978 -184.27404603 570.90713226 -200.484375 588.39135742 C-210.9561088 598.29556718 -223.47440466 605.94571313 -235.7421875 613.38818359 C-255.20475535 625.29075147 -273.95596384 638.53134986 -292.484375 651.82885742 C-292.154375 653.14885742 -291.824375 654.46885742 -291.484375 655.82885742 C-295.33486766 654.14251027 -298.50703897 651.64864133 -301.796875 649.07885742 C-302.65865356 648.41104248 -302.65865356 648.41104248 -303.5378418 647.72973633 C-307.62553526 644.5448357 -311.60066935 641.26096939 -315.484375 637.82885742 C-311.90009726 634.11108703 -308.12821536 630.8099857 -304.046875 627.64135742 C-303.43416748 627.16432373 -302.82145996 626.68729004 -302.19018555 626.19580078 C-287.23220261 614.62770732 -271.47786381 604.41509682 -255.109375 594.95385742 C-223.14565392 576.72438686 -223.14565392 576.72438686 -204.546875 546.20385742 C-204.17240231 544.75060578 -203.81601914 543.29247701 -203.484375 541.82885742 C-203.30519531 541.24491211 -203.12601562 540.6609668 -202.94140625 540.05932617 C-198.46694511 518.22242606 -207.86039502 495.14393551 -219.671875 477.20385742 C-221.89957699 474.00510585 -224.19138529 470.85591088 -226.484375 467.70385742 C-228.484375 464.82885742 -228.484375 464.82885742 -228.484375 462.82885742 C-229.63421875 462.72186523 -230.7840625 462.61487305 -231.96875 462.50463867 C-236.49622379 461.93127749 -240.47395683 460.60566272 -244.734375 459.01635742 C-246.52770815 458.3705186 -248.32206499 457.72751839 -250.1171875 457.08666992 C-251.62587402 456.54768066 -251.62587402 456.54768066 -253.16503906 455.99780273 C-259.62216173 453.72384691 -266.11510237 451.55638166 -272.609375 449.39135742 C-273.36078766 449.14077576 -274.11220032 448.89019409 -274.88638306 448.63201904 C-290.78477476 443.33872836 -306.73429284 438.20332965 -322.71069336 433.15063477 C-333.00421171 429.8907228 -343.27523776 426.58403075 -353.49986267 423.11305237 C-358.37118699 421.46160185 -363.25033421 419.83399347 -368.13015747 418.20785522 C-370.47877879 417.41773656 -372.82350642 416.61594181 -375.16403198 415.80215454 C-378.42177616 414.67056818 -381.69069583 413.57985786 -384.96484375 412.49682617 C-385.92924377 412.14997772 -386.8936438 411.80312927 -387.88726807 411.44577026 C-392.74585057 409.75929319 -392.74585057 409.75929319 -397.58413696 410.74746704 C-399.45945255 412.04843445 -399.45945255 412.04843445 -401.02998352 413.5436554 C-403.81452625 416.00427209 -406.64592397 415.94245816 -410.171875 415.89135742 C-410.98011719 415.88233398 -411.78835938 415.87331055 -412.62109375 415.86401367 C-413.54341797 415.84661133 -413.54341797 415.84661133 -414.484375 415.82885742 C-414.60965576 416.73313477 -414.73493652 417.63741211 -414.86401367 418.5690918 C-415.45835651 422.82356226 -416.06193502 427.07659851 -416.671875 431.32885742 C-416.78319763 432.10681671 -416.89452026 432.884776 -417.00921631 433.68630981 C-418.37264833 443.14379583 -419.95225682 452.45250719 -422.109375 461.76635742 C-427.50609789 486.26336995 -427.74899277 511.29221904 -427.734375 536.26635742 C-427.73378082 537.39900024 -427.73318665 538.53164307 -427.73257446 539.6986084 C-427.72601125 542.96999765 -427.70950457 546.24113185 -427.6875 549.51245117 C-427.68090614 550.95910408 -427.68090614 550.95910408 -427.67417908 552.4349823 C-427.61374532 558.36543477 -427.26279364 564.22144094 -426.71238708 570.12677002 C-426.37426668 574.13371059 -426.30044127 578.12217319 -426.296875 582.14135742 C-426.28462891 582.88708008 -426.27238281 583.63280273 -426.25976562 584.40112305 C-426.24464427 590.15227701 -426.808972 595.28224486 -430.046875 600.20385742 C-433.69769836 602.63773966 -437.13214576 603.12508245 -441.484375 602.82885742 C-451.33894563 598.3846393 -455.49102767 587.17438611 -459.421875 577.82885742 C-459.6817218 577.21493134 -459.9415686 576.60100525 -460.20928955 575.96847534 C-476.48863499 537.32949444 -483.68056009 493.71342485 -483.6171875 451.91479492 C-483.61786289 450.32630397 -483.61883487 448.73781311 -483.62008667 447.14932251 C-483.62154828 443.84994505 -483.61945621 440.55059495 -483.61474609 437.2512207 C-483.60900254 433.02232418 -483.61236645 428.79349049 -483.61831856 424.56459618 C-483.62192601 421.29785688 -483.62078554 418.03113259 -483.61819077 414.76439285 C-483.61752443 413.2038637 -483.61833968 411.64333319 -483.62067032 410.08280563 C-483.62320493 407.91266989 -483.61934695 405.74263777 -483.61376953 403.57250977 C-483.61297394 402.33931 -483.61217834 401.10611023 -483.61135864 399.83554077 C-483.484375 396.82885742 -483.484375 396.82885742 -482.484375 393.82885742 C-483.185625 393.74635742 -483.886875 393.66385742 -484.609375 393.57885742 C-489.12443083 392.40101677 -492.32365188 390.22973016 -495.296875 386.64135742 C-497.8284362 380.64555458 -497.85924496 375.57410391 -496.16015625 369.31323242 C-494.49819401 362.95932609 -493.13388887 356.57017361 -491.796875 350.14135742 C-489.60351919 339.80296425 -487.31575361 329.48959359 -484.87680054 319.20639038 C-484.53489164 317.75924155 -484.19678656 316.31118814 -483.86270142 314.86221313 C-480.08605061 298.52531397 -480.08605061 298.52531397 -474.109375 292.39135742 C-466.60349467 289.15606418 -458.01417434 289.95926926 -450.484375 292.82885742 C-450.39148193 292.27012939 -450.29858887 291.71140137 -450.20288086 291.13574219 C-448.80733847 283.45523912 -446.50774881 276.16488112 -444.046875 268.76635742 C-443.65177734 267.53208008 -443.25667969 266.29780273 -442.84960938 265.02612305 C-442.46224609 263.85629883 -442.07488281 262.68647461 -441.67578125 261.48120117 C-441.32717041 260.41893311 -440.97855957 259.35666504 -440.61938477 258.26220703 C-440.24483154 257.45920166 -439.87027832 256.65619629 -439.484375 255.82885742 C-438.494375 255.49885742 -437.504375 255.16885742 -436.484375 254.82885742 C-436.41605469 254.17143555 -436.34773438 253.51401367 -436.27734375 252.83666992 C-435.1730657 248.64802905 -433.07388719 245.36311446 -430.796875 241.70385742 C-430.07081055 240.52992432 -430.07081055 240.52992432 -429.33007812 239.33227539 C-420.59897061 225.44915215 -410.79784254 212.68372853 -399.484375 200.82885742 C-398.3719329 199.54431105 -397.26695172 198.2532395 -396.171875 196.95385742 C-362.95814144 158.68586006 -362.95814144 158.68586006 -344.296875 157.26635742 C-340.484375 157.82885742 -340.484375 157.82885742 -337.484375 159.76635742 C-334.7983426 163.87934454 -334.84188799 167.02557297 -335.484375 171.82885742 C-336.49070315 174.57620125 -337.91817919 176.92842905 -339.484375 179.39135742 C-340.32586376 180.80366814 -341.16433897 182.21777816 -342 183.63354492 C-342.42216797 184.33962891 -342.84433594 185.04571289 -343.27929688 185.77319336 C-365.19542089 223.15847783 -379.98841377 266.98311726 -390.484375 308.82885742 C-389.288125 308.89073242 -388.091875 308.95260742 -386.859375 309.01635742 C-382.18868812 309.61156 -379.76385798 311.39684035 -376.484375 314.82885742 C-373.25089382 319.6790792 -373.2116226 323.19197452 -373.484375 328.82885742 C-373.484375 330.14885742 -373.484375 331.46885742 -373.484375 332.82885742 C-365.23809615 335.39292954 -356.99134556 337.95548176 -348.74428558 340.51704025 C-346.74309312 341.1386494 -344.74193732 341.76037644 -342.74078369 342.3821106 C-323.33118913 348.41258785 -323.33118913 348.41258785 -303.8984375 354.36791992 C-302.63948669 354.75112648 -302.63948669 354.75112648 -301.35510254 355.14207458 C-297.58731995 356.28786991 -293.81840157 357.42975227 -290.04785156 358.56640625 C-283.77727328 360.463312 -277.57871805 362.4174825 -271.484375 364.82885742 C-271.814375 364.16885742 -272.144375 363.50885742 -272.484375 362.82885742 C-272.69200466 361.44898531 -272.85151807 360.06167407 -272.984375 358.67260742 C-273.0663916 357.8227124 -273.1484082 356.97281738 -273.23291016 356.09716797 C-273.35738525 354.72685425 -273.35738525 354.72685425 -273.484375 353.32885742 C-273.61465088 351.93244019 -273.61465088 351.93244019 -273.74755859 350.5078125 C-274.55071176 341.62566175 -275.07107027 332.73666207 -275.484375 323.82885742 C-276.66128906 323.79147461 -277.83820313 323.7540918 -279.05078125 323.71557617 C-297.3718192 323.03136457 -315.2074891 320.67563714 -333.171875 317.01635742 C-334.31720703 316.79246338 -335.46253906 316.56856934 -336.64257812 316.33789062 C-345.44989036 314.45729607 -355.55289101 311.69921009 -361.671875 304.64135742 C-366.64131996 296.93014973 -365.56256726 285.0122523 -363.75390625 276.31713867 C-356.97266676 257.19747067 -342.87094164 240.77721487 -329.83203125 225.60620117 C-329.05730469 224.68967773 -328.28257812 223.7731543 -327.484375 222.82885742 C-326.90429688 222.20366211 -326.32421875 221.5784668 -325.7265625 220.93432617 C-323.90483276 217.84655156 -323.81283929 214.70260993 -323.546875 211.20385742 C-319.4945621 168.86508173 -308.92268903 127.68534942 -283.484375 92.82885742 C-282.46332209 91.37810427 -281.44393906 89.92617511 -280.42578125 88.47338867 C-274.5542749 80.14804147 -268.62576262 72.12242073 -261.484375 64.82885742 C-260.90284668 64.22831543 -260.32131836 63.62777344 -259.72216797 63.0090332 C-251.71342927 54.75694055 -243.66710185 46.78624378 -234.484375 39.82885742 C-233.95618164 39.41893555 -233.42798828 39.00901367 -232.88378906 38.58666992 C-201.00723294 13.88918919 -164.0511792 -1.87670382 -124.484375 -9.17114258 C-123.64487305 -9.32808594 -122.80537109 -9.4850293 -121.94042969 -9.64672852 C-81.55442875 -17.09004617 -38.65315717 -14.16905863 0 0 Z " fill="#492605" transform="translate(572.484375,171.171142578125)"/>
<path d="M0 0 C9.03985127 20.29743433 16.12185556 40.10267227 20 62 C20.15903809 62.81355957 20.31807617 63.62711914 20.48193359 64.46533203 C25.11546278 88.58807866 26.04967876 114.73808526 22 139 C-7.8977447 140.87488657 -34.66958978 138.7566086 -63.79052734 131.72436523 C-81.3853007 127.75329475 -95.54282591 130.11997561 -111 139 C-115.36881774 142.08278547 -119.35258115 145.56358061 -123.37890625 149.07421875 C-134.99566692 158.86362381 -147.39924077 163.06368054 -162.375 163.4375 C-176.79299261 164.02479094 -189.21359081 167.69500361 -199.95703125 177.75390625 C-208.22652469 186.84560553 -210.68376042 196.5396844 -210.375 208.5390625 C-208.92015637 232.74142544 -185.95823481 254.50490827 -169 270 C-165.05788092 273.38591181 -160.94346516 276.53957272 -156.78564453 279.65429688 C-155.04815502 280.96370926 -153.33382168 282.29906266 -151.62109375 283.640625 C-129.10411521 301.01733821 -102.60217702 314.1377295 -76 324 C-76.3196875 324.83015625 -76.639375 325.6603125 -76.96875 326.515625 C-82.28144631 344.46609888 -74.00205492 362.16328825 -65.7265625 377.76074219 C-59.54494533 388.97002028 -52.23164762 399.453261 -45 410 C-36.11930478 423.04124633 -27.57001328 436.14684484 -20 450 C-19.63181152 450.67305176 -19.26362305 451.34610352 -18.88427734 452.03955078 C-10.23125099 468.07415466 -3.46043223 484.87994179 -1 503 C-35.96657727 517.59122323 -74.25908552 526.15635507 -112 529 C-112.98403809 529.08540039 -113.96807617 529.17080078 -114.98193359 529.25878906 C-125.27954816 530.09726403 -135.54743767 530.24310982 -145.875 530.25 C-147.25078217 530.25101212 -147.25078217 530.25101212 -148.65435791 530.25204468 C-233.30613745 530.1539811 -310.9120683 501.30867164 -379 452 C-377.48760287 447.4940323 -373.86485132 445.5426506 -370.08203125 443.05859375 C-369.37504593 442.58385117 -368.66806061 442.10910858 -367.93965149 441.61997986 C-366.41783037 440.59953885 -364.89326807 439.58317636 -363.36627197 438.57049561 C-361.01676524 437.0111271 -358.67598278 435.43946778 -356.33740234 433.86376953 C-352.28991297 431.13900685 -348.23386279 428.42734128 -344.17407227 425.72094727 C-341.69834408 424.06973258 -339.22511213 422.41482509 -336.75195312 420.75976562 C-327.73178596 414.73674269 -318.66059428 408.81818865 -309.43522644 403.1129303 C-287.89778829 389.69475681 -272.6294467 373.27406586 -265.76171875 348.32421875 C-259.46810019 320.85822188 -267.15804102 291.43487316 -281.38867188 267.68212891 C-284.75332396 262.33497998 -288.34654169 257.15266353 -292 252 C-292.52062012 251.26475098 -293.04124023 250.52950195 -293.57763672 249.77197266 C-295.64080366 246.86178772 -297.70623076 243.95320874 -299.77172852 241.04467773 C-315.38776637 218.95011187 -325.77658027 195.27864242 -332 169 C-332.29777344 167.78699219 -332.59554687 166.57398438 -332.90234375 165.32421875 C-340.94018988 130.65350934 -341.19901022 82.57002097 -325 50 C-323.30200195 48.80908203 -323.30200195 48.80908203 -321.23828125 48.0078125 C-320.46170166 47.69908203 -319.68512207 47.39035156 -318.88500977 47.07226562 C-318.03608154 46.75966797 -317.18715332 46.44707031 -316.3125 46.125 C-315.42038818 45.78404297 -314.52827637 45.44308594 -313.60913086 45.09179688 C-303.23023964 41.20658297 -292.64873146 38.04838918 -282 35 C-280.92169922 34.68562988 -279.84339844 34.37125977 -278.73242188 34.04736328 C-259.0770643 28.33114826 -239.2665416 23.66391879 -219.23803711 19.47137451 C-217.09787724 19.02061487 -214.95986453 18.56087733 -212.82226562 18.09814453 C-168.42486995 8.538857 -122.31214514 3.50203841 -77 1 C-75.87464844 0.93232422 -74.74929688 0.86464844 -73.58984375 0.79492188 C-49.10879616 -0.63188765 -24.51103315 -0.09608923 0 0 Z " fill="#FEE7C4" transform="translate(658,373)"/>
<path d="M0 0 C1.82326079 1.42253342 3.65914636 2.82725695 5.49804688 4.22949219 C12.27093374 9.42875973 18.68896941 14.87515626 24.91210938 20.72167969 C27.10329964 22.75425833 29.31539603 24.71600654 31.58007812 26.66308594 C36.39219279 30.85490673 40.88845529 35.34053878 45.38867188 39.86230469 C46.20013672 40.66990234 47.01160156 41.4775 47.84765625 42.30957031 C73.81805335 68.32188896 94.86816599 98.93100358 111.82617188 131.42480469 C112.30328613 132.3298877 112.78040039 133.2349707 113.27197266 134.16748047 C137.36737591 180.06778697 149.54846901 229.99245853 153.82617188 281.42480469 C153.92188477 282.50012451 154.01759766 283.57544434 154.11621094 284.68334961 C156.87886367 317.27324495 154.56057697 351.25264774 148.82617188 383.42480469 C148.69130371 384.18325684 148.55643555 384.94170898 148.41748047 385.72314453 C141.75381455 422.03897092 128.53225237 456.44430263 112.63867188 489.61230469 C112.34457428 490.22836578 112.05047668 490.84442688 111.74746704 491.47915649 C108.12974096 499.03537792 104.29552949 506.33586455 99.82617188 513.42480469 C92.57242104 511.9779305 85.74851931 509.82078887 78.77148438 507.38183594 C77.61324158 506.9813504 76.45499878 506.58086487 75.26165771 506.16824341 C72.13725368 505.08678695 69.01443956 504.00095696 65.89229584 502.91300583 C62.62426514 501.77541126 59.35424036 500.64357625 56.08447266 499.51098633 C48.3290518 496.8232045 40.5772143 494.12518299 32.82617188 491.42480469 C31.7353833 491.0448938 30.64459473 490.66498291 29.52075195 490.27355957 C12.37288043 484.30044047 12.37288043 484.30044047 4.51660156 481.54418945 C-3.60289274 478.69793298 -11.73164743 475.88849455 -19.89257812 473.16308594 C-21.41721441 472.65097451 -22.94179283 472.13869078 -24.46630859 471.6262207 C-27.273716 470.68262747 -30.08551065 469.75424309 -32.90087891 468.8347168 C-34.11759277 468.42616455 -35.33430664 468.0176123 -36.58789062 467.59667969 C-37.64959473 467.24702148 -38.71129883 466.89736328 -39.80517578 466.53710938 C-40.58683105 466.17004883 -41.36848633 465.80298828 -42.17382812 465.42480469 C-43.31434687 462.00324845 -43.06810048 461.68686845 -41.73632812 458.54980469 C-36.84535804 444.64322155 -42.16030425 430.49708232 -47.17382812 417.42480469 C-41.23790019 414.90564587 -35.21923458 412.72315651 -29.10351562 410.69042969 C-28.37368469 410.44659546 -27.64385376 410.20276123 -26.89190674 409.95153809 C-23.85858152 408.93919932 -20.82496607 407.92827165 -17.78515625 406.93554688 C-3.698365 402.32343612 9.57327037 396.54292343 22.07617188 388.48730469 C23.06182129 387.85973267 23.06182129 387.85973267 24.06738281 387.21948242 C34.89182345 380.24305939 44.52864342 372.28712969 53.82617188 363.42480469 C54.58027344 362.72355469 55.334375 362.02230469 56.11132812 361.29980469 C66.21989588 351.63920815 74.82341813 338.77955656 76.19726562 324.59277344 C76.35506333 315.13419358 75.52393169 308.19780108 69.39257812 300.66308594 C60.29280472 291.65408334 44.88679126 289.13965018 32.57568359 289.00067139 C22.08027173 289.21431923 11.90553074 292.50737546 1.82617188 295.17480469 C-0.29059451 295.72071101 -2.40778078 296.26499191 -4.52539062 296.80761719 C-11.98720755 298.72734288 -19.4425112 300.67018862 -26.87304688 302.70800781 C-27.567771 302.89752014 -28.26249512 303.08703247 -28.97827148 303.2822876 C-30.76881625 303.77295169 -32.55736118 304.27089824 -34.34570312 304.76953125 C-37.17382812 305.42480469 -37.17382812 305.42480469 -41.17382812 305.42480469 C-41.1957019 303.49507813 -41.1957019 303.49507813 -41.21801758 301.52636719 C-41.52879341 276.01822157 -42.14817043 250.77062829 -45.17382812 225.42480469 C-45.28404297 224.47605469 -45.39425781 223.52730469 -45.5078125 222.54980469 C-46.01966497 218.1680867 -46.57565577 213.79570187 -47.17382812 209.42480469 C-46.45018066 209.13347656 -45.7265332 208.84214844 -44.98095703 208.54199219 C-5.74423442 195.54536043 -5.74423442 195.54536043 23.04101562 168.74121094 C24.96878611 163.05380846 23.30300533 158.02234207 21.01367188 152.67480469 C7.89302958 128.39407584 -20.63893632 114.27046508 -44.17382812 102.42480469 C-43.98119385 101.84835205 -43.78855957 101.27189941 -43.59008789 100.67797852 C-41.32321021 93.90415117 -41.32321021 93.90415117 -39.11132812 87.11230469 C-38.79035156 86.12617188 -38.469375 85.14003906 -38.13867188 84.12402344 C-35.46474097 73.87215068 -34.7851419 63.87143477 -34.79882812 53.29980469 C-34.79914536 52.2813295 -34.79914536 52.2813295 -34.79946899 51.24227905 C-34.84807256 35.56866483 -37.09954545 21.57337004 -44.17382812 7.42480469 C-44.7384375 6.29558594 -45.30304687 5.16636719 -45.88476562 4.00292969 C-50.46404329 -4.72856135 -56.17605272 -11.67031073 -63.17382812 -18.57519531 C-64.17542969 -19.57486328 -64.17542969 -19.57486328 -65.19726562 -20.59472656 C-82.38344063 -36.65691122 -103.29417039 -41.26511482 -125.98632812 -40.87988281 C-138.13398457 -40.43608256 -154.17179622 -36.57722722 -163.17382812 -27.57519531 C-168.97684782 -28.01617368 -173.95527868 -29.36048634 -179.42382812 -31.26269531 C-241.75315105 -51.81068556 -310.43471893 -44.28506216 -368.67500305 -15.04084778 C-383.17744078 -7.65095578 -396.59627347 1.10802568 -409.17382812 11.42480469 C-409.70717773 11.85664063 -410.24052734 12.28847656 -410.79003906 12.73339844 C-427.57947986 26.38656773 -442.15230158 41.41478446 -454.17382812 59.42480469 C-455.10130621 60.76918111 -456.02967159 62.11294587 -456.95898438 63.45605469 C-479.65286413 96.80456684 -493.05405225 135.33593464 -495.54492188 175.67871094 C-496.21375557 186.15852556 -498.58922317 191.85177928 -506.17382812 199.42480469 C-520.30967228 215.50964796 -537.80953422 236.70657234 -537.61132812 259.04980469 C-537.63130859 259.85675781 -537.65128906 260.66371094 -537.671875 261.49511719 C-537.66716434 267.29865385 -536.55626669 270.6846267 -533.17382812 275.42480469 C-517.10624762 291.3218164 -477.36403452 291.2059506 -455.93164062 292.03027344 C-455.073125 292.06765625 -454.21460938 292.10503906 -453.33007812 292.14355469 C-452.55470703 292.17384766 -451.77933594 292.20414062 -450.98046875 292.23535156 C-449.17382812 292.42480469 -449.17382812 292.42480469 -448.17382812 293.42480469 C-447.95606868 295.4264147 -447.80181393 297.43498742 -447.67382812 299.44433594 C-447.59132813 300.69537109 -447.50882813 301.94640625 -447.42382812 303.23535156 C-447.34028156 304.5693226 -447.25694931 305.90330708 -447.17382812 307.23730469 C-447.00799844 309.80636927 -446.84134025 312.37538051 -446.67382812 314.94433594 C-446.55201172 316.81919678 -446.55201172 316.81919678 -446.42773438 318.73193359 C-446.06772608 323.96797735 -445.6328593 329.19661052 -445.17382812 334.42480469 C-454.56988313 331.9658937 -463.83665235 329.11170469 -473.11132812 326.23730469 C-476.55123351 325.17285926 -479.99140185 324.10926582 -483.43164062 323.04589844 C-484.34571182 322.76317078 -485.25978302 322.48044312 -486.20155334 322.18914795 C-492.66866092 320.19130676 -499.14173868 318.21369513 -505.61784363 316.245224 C-510.39622324 314.79243941 -515.17314049 313.33487853 -519.94998169 311.87704468 C-522.3069636 311.15906209 -524.66461096 310.44326043 -527.0229187 309.72964478 C-530.341933 308.72493016 -533.65848171 307.71243677 -536.97460938 306.69824219 C-537.97801361 306.39664688 -538.98141785 306.09505157 -540.01522827 305.78431702 C-540.93164093 305.50245041 -541.84805359 305.2205838 -542.79223633 304.93017578 C-543.59393753 304.68657318 -544.39563873 304.44297058 -545.22163391 304.19198608 C-547.17382812 303.42480469 -547.17382812 303.42480469 -549.17382812 301.42480469 C-548.84382813 300.43480469 -548.51382813 299.44480469 -548.17382812 298.42480469 C-547.73195051 293.1222733 -547.92467738 289.48864521 -550.83789062 284.96386719 C-554.28580676 280.99170649 -558.99648574 279.05236134 -564.17382812 278.42480469 C-563.56286458 270.86765563 -561.43992042 263.90748841 -559.23632812 256.67480469 C-559.03753052 256.01963867 -558.83873291 255.36447266 -558.63391113 254.68945312 C-551.09042547 229.89665993 -541.82859288 206.02399001 -531.17382812 182.42480469 C-530.75746094 181.49812988 -530.34109375 180.57145508 -529.91210938 179.61669922 C-526.53484238 172.14608089 -523.00505432 164.8306477 -518.95507812 157.69824219 C-518.40150635 156.71726562 -517.84793457 155.73628906 -517.27758789 154.72558594 C-516.19772212 152.8294524 -515.10023283 150.943205 -513.98217773 149.06933594 C-510.79241294 143.49464689 -508.99457186 138.90090831 -510.17382812 132.42480469 C-511.4876263 129.69418893 -511.4876263 129.69418893 -514.17382812 128.42480469 C-522.52429355 127.12904281 -528.39860368 130.83835316 -535.13867188 135.45605469 C-544.47584167 142.3810261 -552.83968985 150.34109666 -561.17382812 158.42480469 C-561.69170898 158.92608887 -562.20958984 159.42737305 -562.74316406 159.94384766 C-568.1614878 165.2115591 -573.34452394 170.61228888 -578.17382812 176.42480469 C-578.5935791 176.92544434 -579.01333008 177.42608398 -579.44580078 177.94189453 C-591.25728494 192.09513381 -601.33538145 207.25564635 -610.17382812 223.42480469 C-611.40986623 219.71669038 -610.79581831 218.13357245 -609.80273438 214.37792969 C-609.31873169 212.53956543 -609.31873169 212.53956543 -608.82495117 210.6640625 C-608.46321976 209.33399853 -608.10031686 208.00425269 -607.73632812 206.67480469 C-607.55365387 206.00042358 -607.37097961 205.32604248 -607.18276978 204.63122559 C-593.35478893 153.73461829 -569.9377644 105.5671415 -535.72070312 65.26416016 C-534.3365047 63.61823987 -532.981456 61.95529567 -531.64257812 60.27246094 C-527.2370181 54.74224211 -522.57917777 49.70517656 -517.51757812 44.76855469 C-515.41312573 42.66410229 -513.4700295 40.5078154 -511.54882812 38.23730469 C-508.75965193 34.98972222 -505.78226986 32.21848615 -502.51757812 29.45605469 C-500.18419542 27.43378967 -497.93489536 25.33549604 -495.68896484 23.21704102 C-489.10216237 17.02340731 -482.2421231 11.35059887 -475.05566406 5.86962891 C-473.09472331 4.36407008 -471.15304984 2.83593682 -469.21289062 1.30371094 C-452.84389517 -11.54267049 -435.31923714 -22.43113105 -417.17382812 -32.57519531 C-416.50416016 -32.95595215 -415.83449219 -33.33670898 -415.14453125 -33.72900391 C-343.98217461 -74.05552419 -256.28586725 -86.95667342 0 0 Z " fill="#FEE8C5" transform="translate(746.173828125,201.5751953125)"/>
<path d="M0 0 C1.28825216 0.43375775 2.57757329 0.86435195 3.86787415 1.29197693 C6.59241483 2.19926058 9.31063214 3.12281744 12.02545166 4.05877686 C16.03679468 5.43640966 20.06695464 6.74863916 24.10693359 8.03955078 C24.76314918 8.24937277 25.41936476 8.45919476 26.09546566 8.67537498 C27.42975129 9.10188288 28.76407118 9.5282836 30.09842491 9.9545784 C33.52272009 11.05201529 36.94235945 12.16373655 40.36206055 13.27539062 C41.0528901 13.49985682 41.74371965 13.72432301 42.45548344 13.9555912 C43.86915878 14.41493203 45.28282029 14.87431544 46.69646835 15.33374023 C53.39421267 17.5097033 60.09363921 19.68048606 66.79296875 21.8515625 C67.5323638 22.09124378 68.27175884 22.33092506 69.0335598 22.57786942 C79.05042151 25.82439091 89.0734798 29.05047047 99.10546875 32.25 C100.24933548 32.61493057 101.39320221 32.97986115 102.57173157 33.35585022 C107.82936767 35.03229224 113.08811126 36.70515631 118.34838867 38.37329102 C127.58079103 41.30883415 136.77266108 44.3126726 145.88383484 47.6081543 C149.63175589 48.96304041 149.63175589 48.96304041 153.48608398 49.95629883 C156.71049956 50.94623045 158.19397333 54.42973848 159.91796875 57.16015625 C160.35262451 57.83280518 160.78728027 58.5054541 161.23510742 59.19848633 C174.94427502 80.62329076 185.40808757 102.58931705 181.73046875 128.5625 C175.9878137 153.00467555 157.3502925 165.83287525 137.26953125 178.3828125 C133.94818357 180.42708098 130.58481155 182.37956949 127.18675232 184.29350281 C119.48590971 188.63318338 112.07497192 193.29814198 104.73046875 198.22265625 C104.14834625 198.61084534 103.56622375 198.99903442 102.96646118 199.39898682 C94.69375321 204.9246943 86.70352484 210.68126568 79.0859375 217.08984375 C73.32196915 221.79669876 73.32196915 221.79669876 70.16796875 223.47265625 C65.02171712 222.78813881 61.60794984 218.24346989 58.16796875 214.66015625 C57.5646875 214.04333984 56.96140625 213.42652344 56.33984375 212.79101562 C55.15444538 211.57855925 53.97176243 210.36344129 52.79199219 209.14550781 C49.77286505 206.03560716 46.69665135 202.98692023 43.58984375 199.96484375 C38.23742151 194.72197401 33.26040644 189.39246233 28.59375 183.515625 C26.82722048 181.2996403 25.04041158 179.12346818 23.2109375 176.9609375 C14.3090591 166.36554434 6.59915898 155.1381429 -0.83203125 143.47265625 C-1.48147705 142.45389404 -1.48147705 142.45389404 -2.14404297 141.41455078 C-4.82617025 137.16628237 -7.37014088 132.85193972 -9.83203125 128.47265625 C-10.25548828 127.72145508 -10.67894531 126.97025391 -11.11523438 126.19628906 C-18.96969788 112.10911099 -25.24772667 97.59383759 -30.83203125 82.47265625 C-31.23147949 81.3935498 -31.63092773 80.31444336 -32.04248047 79.20263672 C-33.20794874 76.00989345 -34.33978774 72.80756247 -35.45703125 69.59765625 C-35.80016357 68.64205811 -36.1432959 67.68645996 -36.49682617 66.7019043 C-40.04975989 56.14310754 -38.98778582 46.70232381 -37.01953125 35.91015625 C-36.65214476 33.81253484 -36.2849594 31.7148782 -35.91796875 29.6171875 C-35.73459961 28.58674316 -35.55123047 27.55629883 -35.36230469 26.49462891 C-34.86505447 23.66085214 -34.39248132 20.82458727 -33.93359375 17.984375 C-33.79928955 17.15429932 -33.66498535 16.32422363 -33.52661133 15.46899414 C-33.27749131 13.9228582 -33.02986063 12.37648132 -32.78393555 10.82983398 C-31.94317322 5.69494018 -31.94317322 5.69494018 -30.83203125 3.47265625 C-27.90070048 2.93927258 -24.97016983 2.64169956 -22.0078125 2.328125 C-18.60046073 1.72854709 -18.60046073 1.72854709 -16.43554688 -1.30126953 C-11.47939079 -5.52650209 -5.41847999 -1.93262835 0 0 Z " fill="#FEE7C4" transform="translate(188.83203125,583.52734375)"/>
<path d="M0 0 C1.09479172 -0.00551376 1.09479172 -0.00551376 2.21170044 -0.01113892 C15.27876956 -0.04554385 28.3160322 0.77209513 41 4.125 C41.63550781 4.2909668 42.27101563 4.45693359 42.92578125 4.62792969 C50.68545885 6.68484812 58.37834156 8.99203631 66.0625 11.3125 C64.56006382 14.63006213 62.61377587 17.26165404 60.375 20.125 C49.15086166 35.42323574 43.88639738 53.28512618 43.875 72.125 C43.86275391 73.14787109 43.85050781 74.17074219 43.83789062 75.22460938 C43.82100126 84.36175482 44.86559821 93.27097506 46.0625 102.3125 C45.16644547 102.38980598 45.16644547 102.38980598 44.25228882 102.46867371 C-42.54004939 109.98919741 -145.76241577 129.00077116 -215.98828125 184.80078125 C-217.9375 186.3125 -217.9375 186.3125 -218.9375 186.3125 C-217.99504256 140.13208523 -190.22398827 95.48735914 -158.15625 64.30859375 C-153.29613022 59.66207023 -148.3066635 55.36920131 -142.9375 51.3125 C-141.72882654 50.37543855 -140.52051999 49.43790372 -139.3125 48.5 C-115.40530089 30.0879239 -89.99780521 16.77912765 -60.9375 8.3125 C-60.07318359 8.05887695 -59.20886719 7.80525391 -58.31835938 7.54394531 C-39.07857176 2.02237962 -19.9542109 0.04796622 0 0 Z " fill="#E25E08" transform="translate(493.9375,180.6875)"/>
<path d="M0 0 C2.64416242 2.83551628 2.99333124 3.61321174 3.0625 7.625 C-0.00596643 24.05032028 -18.26037582 37.56996264 -31.28515625 46.54296875 C-85.89239661 83.01962838 -153.33855459 87.65931061 -216.4375 75.375 C-231.23104834 72.36246002 -245.87157327 68.69022953 -260.49609375 64.953125 C-261.152146 64.78561737 -261.80819824 64.61810974 -262.48413086 64.44552612 C-264.32475628 63.97139056 -266.16243393 63.48585737 -268 63 C-269.267229 62.6709668 -270.53445801 62.34193359 -271.84008789 62.00292969 C-275.34350471 60.89097448 -276.49379134 59.5870541 -279 57 C-285.13807213 54.20996721 -291.09315273 54.15026996 -297.375 56.3125 C-301.17512334 57.69911119 -301.17512334 57.69911119 -303 61 C-303.5461026 64.3915846 -303.54104628 67.60763982 -303 71 C-300.47323961 74.34625024 -298.96066458 75.67977847 -295 77 C-294.14148438 76.98839844 -293.28296875 76.97679687 -292.3984375 76.96484375 C-287.70623014 76.92240777 -284.28664792 76.97352733 -280.52734375 79.97265625 C-278.24524701 82.57674195 -276.11581305 85.25959269 -274 88 C-250.82042856 114.08838041 -210.90344586 135.55028633 -175.79638672 138.1640625 C-157.88336549 139.15030534 -157.88336549 139.15030534 -142.1328125 132.50390625 C-138.49352001 128.23140353 -138.63687825 124.5376067 -139 119 C-139.68115117 116.65557273 -140.46937221 114.39233075 -141.34375 112.11328125 C-142 110 -142 110 -142 106 C-139.32939609 105.59688998 -136.68479937 105.27817388 -134 105 C-133.08605469 104.87367188 -132.17210937 104.74734375 -131.23046875 104.6171875 C-128.2670864 104.36584727 -125.90090855 104.32475023 -123 105 C-120.07985409 107.55286982 -118.61023529 110.51029393 -117 114 C-116.58878906 114.82757812 -116.17757812 115.65515625 -115.75390625 116.5078125 C-112.96060322 122.67434307 -111.47548479 128.55689419 -113.73046875 135.12890625 C-120.19199237 149.02777542 -134.25337512 157.42360746 -148.08300781 162.81152344 C-155.50707722 165.37564762 -162.69859927 165.53938609 -170.5 165.5 C-171.16296082 165.49790527 -171.82592163 165.49581055 -172.50897217 165.49365234 C-183.75094446 165.42055804 -193.52458915 164.05352855 -204 160 C-204.76860352 159.71592285 -205.53720703 159.4318457 -206.32910156 159.13916016 C-212.29291266 156.92701069 -218.15775961 154.51417644 -224 152 C-224.90331055 151.61150879 -225.80662109 151.22301758 -226.73730469 150.82275391 C-244.60911137 143.06452307 -261.49720328 134.80690976 -276.49511719 122.24902344 C-278.66506347 120.44801027 -280.89918423 118.73119004 -283.125 117 C-288.47092057 112.70401473 -293.52722927 108.11205671 -298.51074219 103.40576172 C-299.94044598 102.05621509 -301.38017672 100.71731499 -302.8203125 99.37890625 C-308.06445599 94.35140116 -312.62502282 89.14758267 -316.9375 83.3125 C-317.38617432 82.70696289 -317.83484863 82.10142578 -318.29711914 81.47753906 C-323.90434839 73.66236402 -328.18573798 65.85856439 -327 56 C-323.70439519 49.27696619 -318.00390069 44.46820398 -311 42 C-308.51147461 41.63696289 -308.51147461 41.63696289 -305.90234375 41.47265625 C-304.46133301 41.37041748 -304.46133301 41.37041748 -302.99121094 41.26611328 C-301.98348633 41.1989209 -300.97576172 41.13172852 -299.9375 41.0625 C-291.68882276 40.42413304 -283.90253359 39.57744172 -276 37 C-275.12085938 36.74734375 -274.24171875 36.4946875 -273.3359375 36.234375 C-261.7032791 32.54678876 -252.15263018 25.3653176 -243.390625 17.08203125 C-233.28812012 8.28360788 -224.1149171 7.13986273 -211.16455078 7.70849609 C-203.54162816 8.41068477 -196.17711969 10.51219039 -188.8046875 12.4921875 C-146.9046357 23.67388959 -100.10236578 16.37527113 -59.21679688 4.62939453 C-52.17706689 2.63066943 -45.09330521 0.79766821 -38 -1 C-36.79899658 -1.3086499 -36.79899658 -1.3086499 -35.57373047 -1.62353516 C-22.94503999 -4.82973022 -11.94691257 -6.90509626 0 0 Z " fill="#E25E08" transform="translate(797,518)"/>
<path d="M0 0 C18.6656668 -1.94038012 18.6656668 -1.94038012 24.27587891 1.87988281 C28.0514422 5.58458048 30.64104826 9.87083668 33.10449219 14.52001953 C41.03978682 29.18167212 59.65570739 39.66612694 75.00830078 44.35839844 C76.37961433 44.72658069 77.75323602 45.0870118 79.13330078 45.42089844 C79.13330078 45.75089844 79.13330078 46.08089844 79.13330078 46.42089844 C78.19276855 46.45530029 77.25223633 46.48970215 76.28320312 46.52514648 C-8.16924549 49.73915182 -97.36951928 61.10672571 -177.56445312 88.63232422 C-179.90287208 89.4332885 -182.24907441 90.20740392 -184.59716797 90.97949219 C-218.60170786 102.33391939 -251.40856408 117.85331067 -283.30249023 134.11499023 C-285.48577133 135.22689831 -287.67352285 136.32867398 -289.86669922 137.42089844 C-281.52467806 115.06907142 -259.24042292 95.66629547 -240.59814453 81.75097656 C-238.7871137 80.35976167 -237.04034397 78.91079658 -235.29638672 77.43652344 C-226.85198356 70.33156954 -218.15412303 64.75764161 -208.34814453 59.70703125 C-205.82446971 58.39901089 -203.32684404 57.04843108 -200.82763672 55.69433594 C-141.26487682 24.06866525 -72.80228179 6.47989893 -5.87811279 0.60681152 C-3.91668963 0.425519 -1.95821661 0.21315605 0 0 Z " fill="#E25E08" transform="translate(527.86669921875,304.5791015625)"/>
<path d="M0 0 C14.57279804 10.01087866 25.52180533 25.83102137 29.02514648 43.25708008 C29.18184814 44.12099365 29.3385498 44.98490723 29.5 45.875 C29.66765869 46.79112061 29.83531738 47.70724121 30.00805664 48.65112305 C33.60358279 69.63020473 30.78590443 92.0934972 18.3125 109.8125 C9.35673743 121.25221936 -2.21879738 131.55894546 -16.75 134.8125 C-30.86538449 135.8186883 -43.77151324 134.78487128 -55.09375 125.26171875 C-55.91359375 124.54435547 -55.91359375 124.54435547 -56.75 123.8125 C-57.74 123.090625 -58.73 122.36875 -59.75 121.625 C-71.6419592 111.39983832 -81.5481811 92.40451894 -82.75 76.8125 C-84.24361113 52.78807075 -80.44128421 30.90691847 -64.171875 12.28125 C-46.51868112 -5.7136186 -22.85377448 -13.74422801 0 0 Z " fill="#E25F08" transform="translate(654.75,192.1875)"/>
<path d="M0 0 C7.77183921 2.25794853 15.43627582 4.78884792 23.09765625 7.39453125 C24.36132595 7.8229564 25.62504485 8.25123647 26.8888092 8.67938232 C30.25195747 9.81927928 33.61435503 10.9613752 36.97660065 12.10393143 C39.78027018 13.05632259 42.58441752 14.00730248 45.38856888 14.95827389 C62.46276958 20.7488125 79.52757809 26.56652022 96.58557129 32.40463257 C108.14537038 36.35949101 119.72057264 40.26533674 131.3125 44.125 C132.03686249 44.36644745 132.76122498 44.6078949 133.50753784 44.85665894 C141.20729024 47.42273909 148.91153239 49.97430011 156.62550354 52.49734497 C160.00050815 53.60223526 163.37368428 54.71264428 166.74667358 55.82366943 C168.36410152 56.35467583 169.98244246 56.88290989 171.60171509 57.40826416 C173.83438227 58.13270099 176.06390998 58.86611152 178.29296875 59.6015625 C178.96085419 59.81558716 179.62873962 60.02961182 180.31686401 60.25012207 C181.89790509 60.77681168 183.45261985 61.38136641 185 62 C185.33 62.66 185.66 63.32 186 64 C183.13369054 67.94117551 179.87511259 70.91803134 176.1953125 74.0546875 C173.91830777 76.0723892 171.80784537 78.19385619 169.6875 80.375 C165.71418426 84.38885978 161.53173621 87.97637995 157.12109375 91.5 C154.86047182 93.31076099 152.62865867 95.13920686 150.41015625 97 C95.29708097 143 95.29708097 143 76 143 C75.79955078 142.37246826 75.59910156 141.74493652 75.39257812 141.09838867 C65.11436187 109.1129759 51.00293138 81.69819289 32.54296875 53.72265625 C30.52835771 50.66946078 28.51397954 47.61611207 26.5 44.5625 C25.99622833 43.79885132 25.49245667 43.03520264 24.97341919 42.24841309 C19.09534114 33.3306679 13.25170074 24.40678225 7.75 15.25 C7.29173828 14.49017822 6.83347656 13.73035645 6.36132812 12.94750977 C3.87740639 8.74257128 1.82635455 4.53030804 0 0 Z " fill="#FEE8C5" transform="translate(604,723)"/>
<path d="M0 0 C11.42063978 6.57614456 18.48833538 16.07194833 22.31640625 28.75 C25.69647547 44.06428653 24.71150166 61.65105774 16.3515625 75.12109375 C9.68351706 84.22907562 2.38406617 89.92471368 -8.8359375 92.24609375 C-18.08343321 93.29477883 -26.41085216 90.90677014 -34.0234375 85.55859375 C-44.15689549 77.25248065 -50.54947787 67.26316436 -52.8359375 54.24609375 C-54.36690749 36.88665149 -52.17892088 22.32712367 -41.31640625 8.28125 C-30.83170305 -3.37692363 -14.19611885 -6.86066614 0 0 Z " fill="#492606" transform="translate(480.8359375,424.75390625)"/>
<path d="M0 0 C11.46420328 6.63717032 17.43073125 17.77314958 21.00390625 30.16015625 C22.06918777 35.13614232 22.18717868 39.97053228 22.19140625 45.03515625 C22.20365234 45.79957031 22.21589844 46.56398438 22.22851562 47.3515625 C22.26299646 60.89103758 16.5777444 75.01470767 7.34765625 84.94140625 C0.21570646 91.55466878 -6.91760575 92.80660569 -16.5234375 92.5703125 C-24.17553771 91.66652114 -30.24313101 87.85132507 -35.40625 82.2265625 C-38.53778132 78.1563412 -40.83049392 73.803402 -42.99609375 69.16015625 C-43.41246094 68.32484375 -43.82882812 67.48953125 -44.2578125 66.62890625 C-49.24225068 54.73621166 -49.28322514 37.83102977 -44.87109375 25.72265625 C-43.97587931 23.8372046 -43.02167699 21.97798898 -41.99609375 20.16015625 C-41.32707031 18.92652344 -41.32707031 18.92652344 -40.64453125 17.66796875 C-32.42474806 4.02955754 -16.03400051 -6.96426285 0 0 Z " fill="#462405" transform="translate(640.99609375,211.83984375)"/>
<path d="M0 0 C10.16797465 7.19376881 17.05099036 17.48665225 19.55859375 29.7265625 C21.6699105 45.38393804 19.7445566 59.73097453 10.6953125 72.8984375 C6.20695405 78.70540973 -0.6547481 83.73028173 -8 85 C-18.03579068 86.02168488 -25.66230359 84.85335373 -34 79 C-42.57933149 71.6524982 -48.95323206 60.33167831 -50 49 C-50.89528243 32.68958189 -49.0660798 18.46875629 -37.9296875 5.609375 C-27.04084381 -4.92821566 -13.35964427 -6.98088454 0 0 Z " fill="#492606" transform="translate(638,417)"/>
<path d="M0 0 C14.51587896 3.2730906 28.63103731 7.83284673 42.81148148 12.30659103 C48.91898818 14.23225074 55.02969232 16.14774584 61.140625 18.0625 C61.81575197 18.27421782 62.49087894 18.48593563 63.18646431 18.70406914 C72.24358367 21.54256505 81.31829527 24.31356606 90.421875 27 C91.43154831 27.29910782 92.44122162 27.59821564 93.48149109 27.90638733 C98.13466477 29.28358727 102.79104613 30.64748534 107.4543457 31.98999023 C109.08560262 32.47067112 110.71671576 32.95184031 112.34765625 33.43359375 C113.07390198 33.63698364 113.80014771 33.84037354 114.54840088 34.04992676 C118.69302756 35.29054474 121.35307485 36.53935581 124 40 C125.20092773 42.48266602 125.20092773 42.48266602 126.18359375 45.25390625 C126.55419922 46.27419922 126.92480469 47.29449219 127.30664062 48.34570312 C127.67982422 49.40724609 128.05300781 50.46878906 128.4375 51.5625 C131.03520073 58.83878215 133.75800535 65.89360964 137.16430664 72.83569336 C137.44008545 73.54991455 137.71586426 74.26413574 138 75 C137.67 75.66 137.34 76.32 137 77 C104.04380448 67.65556923 71.31467048 57.75722875 38.70556641 47.27270508 C38.03800512 47.05808278 37.37044384 46.84346048 36.68265343 46.62233448 C36.02220842 46.40999007 35.36176342 46.19764566 34.68130493 45.97886658 C34.02848164 45.76898542 33.37565834 45.55910427 32.70305252 45.34286308 C31.41064028 44.92727781 30.11827855 44.51153541 28.8259697 44.09562874 C16.92303319 40.26670315 4.97805541 36.58648676 -7 33 C-6.71342529 31.75114014 -6.42685059 30.50228027 -6.1315918 29.21557617 C-4.24417533 20.96975298 -2.52773608 12.7940839 -1.39453125 4.40625 C-1 2 -1 2 0 0 Z " fill="#E25E08" transform="translate(184,524)"/>
<path d="M0 0 C5.62677589 0.58664816 10.81586666 1.64800895 16.25 3.1875 C26.04642959 5.88750138 35.95577999 7.95722891 45.91894531 9.9440918 C47.08264648 10.18297119 48.24634766 10.42185059 49.4453125 10.66796875 C50.49219238 10.87703857 51.53907227 11.0861084 52.61767578 11.30151367 C53.40384277 11.53201416 54.19000977 11.76251465 55 12 C56.47052249 14.94104498 55.54059577 16.80954042 54.8125 19.9921875 C54.52898682 21.24249756 54.24547363 22.49280762 53.95336914 23.78100586 C53.63591119 25.14574779 53.31811386 26.51041081 53 27.875 C52.68127945 29.26368907 52.36284155 30.65244304 52.04467773 32.04125977 C48.88891005 45.74167183 45.48313437 59.37945665 42 73 C33.4908679 72.55803166 25.55910579 70.50606655 17.375 68.25 C16.0389889 67.8876919 14.70288808 67.52571449 13.36669922 67.1640625 C4.17338468 64.66173521 -4.95760908 62.0045005 -14 59 C-13.43271075 52.37940081 -12.16175956 46.37071383 -10.3125 40 C-7.60325137 30.39916772 -5.20078626 20.74744405 -2.91723633 11.03710938 C-2.68029053 10.03099609 -2.44334473 9.02488281 -2.19921875 7.98828125 C-1.99127686 7.09665283 -1.78333496 6.20502441 -1.5690918 5.28637695 C-1 3 -1 3 0 0 Z " fill="#C7A576" transform="translate(113,486)"/>
<path d="M0 0 C9.50927665 9.50927665 11.8125757 20.08192087 11.9375 33.1875 C11.86475505 42.72361687 10.75010838 50.91898376 4.5625 58.5625 C-1.49289937 64.0271287 -6.60602993 63.93700068 -14.4375 63.5625 C-20.82920786 62.80416178 -23.74370954 59.7798239 -27.70703125 55.00390625 C-34.61878942 45.25255443 -34.37020363 32.0522905 -33.4375 20.5625 C-32.01889228 13.09657024 -29.38720121 6.50132965 -23.4375 1.5625 C-16.58924543 -2.77006922 -7.43581368 -3.10952208 0 0 Z " fill="#FDE9C7" transform="translate(638.4375,226.4375)"/>
<path d="M0 0 C2.75153071 0.61879402 5.50108898 1.24476186 8.25 1.875 C9.02730469 2.04902344 9.80460937 2.22304688 10.60546875 2.40234375 C11.73662109 2.66337891 11.73662109 2.66337891 12.890625 2.9296875 C13.58188477 3.08679199 14.27314453 3.24389648 14.98535156 3.40576172 C17.14737125 4.04346845 19.01604085 4.93799834 21 6 C20.32155671 13.58402681 18.83105579 20.87072755 17.25 28.3125 C14.78524606 40.23858378 12.83146876 52.18392195 11.1875 64.25 C11.03033508 65.39899277 11.03033508 65.39899277 10.86999512 66.57119751 C9.09791401 79.61093045 7.85094733 92.46246379 7.4375 105.625 C7.39431641 106.91535156 7.35113281 108.20570313 7.30664062 109.53515625 C7.20147852 112.69001933 7.09933396 115.84494895 7 119 C6.34 118.67 5.68 118.34 5 118 C4.41437682 115.61324061 3.95665815 113.29913218 3.5625 110.87890625 C3.43689697 110.14614975 3.31129395 109.41339325 3.18188477 108.65843201 C2.91552703 107.09290777 2.65353947 105.52663487 2.39550781 103.9597168 C2.01104578 101.62944969 1.61232558 99.30201287 1.2109375 96.97460938 C-1.64036011 80.21301764 -3.34169851 63.81278376 -3.26074219 46.79638672 C-3.25003441 44.13355613 -3.26070849 41.471404 -3.2734375 38.80859375 C-3.29603112 9.88809337 -3.29603112 9.88809337 0 0 Z " fill="#CAA878" transform="translate(115,573)"/>
<path d="M0 0 C6.12052664 0.15668548 11.54597879 3.37284276 16.9375 6 C17.96004883 6.4954834 18.98259766 6.9909668 20.03613281 7.50146484 C32.64462199 13.69054528 44.65112668 20.36113254 55 30 C55 30.33 55 30.66 55 31 C45.87443414 30.30412293 36.82729569 29.10140147 27.75808716 27.90148926 C7.53934578 25.2351972 -12.63182084 23.10886935 -33 22 C-30.80590827 19.80590827 -28.57923427 18.78813581 -25.79345703 17.48681641 C-16.21400534 12.99804482 -7.52003462 7.52003462 0 0 Z " fill="#E35F08" transform="translate(685,327)"/>
<path d="M0 0 C1 2 1 2 0.24658203 4.70092773 C-0.16221191 5.85020752 -0.57100586 6.9994873 -0.9921875 8.18359375 C-1.45138672 9.50116694 -1.90993313 10.81896777 -2.36791992 12.13696289 C-2.73679825 13.1876445 -2.73679825 13.1876445 -3.11312866 14.259552 C-9.51938836 32.57301229 -14.4337485 51.15501675 -19 70 C-21.3134359 69.5253725 -23.62573019 69.04517721 -25.9375 68.5625 C-27.22527344 68.29566406 -28.51304687 68.02882813 -29.83984375 67.75390625 C-33 67 -33 67 -34 66 C-33.58517519 59.5811319 -31.87555535 54.0986297 -29.5625 48.125 C-29.20978027 47.21169922 -28.85706055 46.29839844 -28.49365234 45.35742188 C-22.70421589 30.82213383 -14.98518807 18.01578934 -5 6 C-4.53674316 5.44248047 -4.07348633 4.88496094 -3.59619141 4.31054688 C-2.39950286 2.87199685 -1.20001804 1.43577379 0 0 Z " fill="#CBA879" transform="translate(178,405)"/>
<path d="M0 0 C2.65362417 2.21927137 4.45245217 4.90490433 6 8 C6.14851844 9.93359586 6.22130833 11.87342097 6.25 13.8125 C6.27578125 14.85019531 6.3015625 15.88789063 6.328125 16.95703125 C5.95701851 20.39860214 5.04491005 22.23540073 3 25 C-0.28767564 26.64383782 -3.47348908 26.77203764 -7 26 C-10.60256392 23.60857641 -12.53485106 20.65937965 -13.6953125 16.51953125 C-14.44909297 11.21901111 -14.18464137 7.50242401 -11 3 C-7.70908241 -0.52598313 -4.67997306 -0.73894311 0 0 Z " fill="#FCEBCD" transform="translate(477,444)"/>
<path d="M0 0 C3.18621896 1.04039803 4.6808956 1.99402904 6.36328125 4.92578125 C8.08995837 10.04793518 8.32082842 16.10852192 6.14453125 21.109375 C4.12290145 23.85722134 2.34364726 24.92971318 -0.9375 25.75 C-5.29285614 24.66116097 -6.38463341 22.64695227 -8.9375 19 C-10.67209436 15.53081128 -10.40923877 11.79303468 -9.9375 8 C-7.56089269 3.4926413 -5.47345861 0 0 0 Z " fill="#FBEBCE" transform="translate(630.9375,434)"/>
<path d="M0 0 C2.08193559 2.77591412 3.6877403 5.09731013 5.27734375 8.09765625 C5.91458374 9.28572876 5.91458374 9.28572876 6.56469727 10.49780273 C7.01772217 11.34415283 7.47074707 12.19050293 7.9375 13.0625 C15.54209431 27.04876865 23.73209316 40.54701145 33.640625 53.02734375 C35.97701392 55.97103906 38.2112565 58.97246674 40.4375 62 C47.52941667 71.48090447 55.27217395 80.38852665 63.41796875 88.9765625 C65 91 65 91 65 94 C54.92766371 83.99960897 46.08965578 73.50597704 37.60986328 62.14501953 C36.07754127 60.1033178 34.52551336 58.07867245 32.96484375 56.05859375 C27.24289061 48.61377093 21.88728811 40.98620304 16.75 33.125 C16.17636719 32.24996826 15.60273438 31.37493652 15.01171875 30.47338867 C14.48707031 29.65974854 13.96242187 28.8461084 13.421875 28.0078125 C12.95362305 27.28223145 12.48537109 26.55665039 12.00292969 25.80908203 C11 24 11 24 11 22 C10.34 22 9.68 22 9 22 C8.5875 20.824375 8.175 19.64875 7.75 18.4375 C6.22186825 14.33567267 4.26112467 10.74255118 2 7 C1.67 9.31 1.34 11.62 1 14 C0.67 14 0.34 14 0 14 C0 9.38 0 4.76 0 0 Z " fill="#FDF2E1" transform="translate(144,709)"/>
<path d="M0 0 C0.33 0 0.66 0 1 0 C4.49852824 18.38588243 5.18913489 37.20322494 5.1875 55.875 C5.18840637 56.54423492 5.18931274 57.21346985 5.19024658 57.90298462 C5.18895159 66.31773572 4.84858871 74.62738824 4 83 C3.67 83 3.34 83 3 83 C2.67 62.54 2.34 42.08 2 21 C1.34 21 0.68 21 0 21 C0 14.07 0 7.14 0 0 Z " fill="#FCE9D3" transform="translate(896,457)"/>
<path d="M0 0 C3.33578513 1.45155894 5.52498603 3.27925938 8.08203125 5.8515625 C8.84966797 6.62113281 9.61730469 7.39070312 10.40820312 8.18359375 C11.20162109 8.98925781 11.99503906 9.79492188 12.8125 10.625 C13.59431641 11.40746094 14.37613281 12.18992188 15.18164062 12.99609375 C27.44856714 25.3552528 38.27647379 39.01653814 48.875 52.8125 C49.40504639 53.48796875 49.93509277 54.1634375 50.48120117 54.859375 C51.73590207 56.51398141 52.87955664 58.25168555 54 60 C53.67 60.99 53.34 61.98 53 63 C52.40574219 62.14019531 51.81148437 61.28039062 51.19921875 60.39453125 C45.99210663 52.94000487 40.51608677 45.88122349 34.5703125 39.00390625 C32.38288901 36.44747971 30.30398808 33.85057113 28.25 31.1875 C20.14654342 20.96210737 10.79694142 11.58377187 1.44140625 2.50390625 C0 1 0 1 0 0 Z " fill="#FDF2E2" transform="translate(779,231)"/>
<path d="M0 0 C12.35743351 11.48642498 20.10692296 31.10307175 27.6875 45.9375 C28.13399902 46.79609619 28.58049805 47.65469238 29.04052734 48.53930664 C29.44352051 49.33973389 29.84651367 50.14016113 30.26171875 50.96484375 C30.62225342 51.6724585 30.98278809 52.38007324 31.35424805 53.10913086 C32 55 32 55 31 58 C28.83132817 55.83132817 28.29026114 54.44165073 27.2421875 51.59765625 C24.93480538 45.65630738 22.09045393 40.07335639 19.125 34.4375 C18.62097656 33.46103516 18.11695313 32.48457031 17.59765625 31.47851562 C14.77510617 26.082464 11.77790911 20.95297818 8.29248047 15.95727539 C7.01876464 14.02841635 6.00643643 12.07800476 5 10 C3.70225132 7.91573697 2.36558298 5.86057509 1.0234375 3.8046875 C0 2 0 2 0 0 Z " fill="#FCF0DE" transform="translate(835,296)"/>
<path d="M0 0 C1.43702814 4.48387586 -0.00296364 7.83349578 -1.5 12.125 C-2.4031333 14.74177084 -3.22783673 17.33837659 -4 20 C-3.67 20.66 -3.34 21.32 -3 22 C-2.01 21.01 -1.02 20.02 0 19 C-1.34927545 23.53847198 -3.19159348 27.31932246 -5.625 31.375 C-6.25664062 32.43460937 -6.88828125 33.49421875 -7.5390625 34.5859375 C-8.02117187 35.38257813 -8.50328125 36.17921875 -9 37 C-10.29268502 33.12194494 -9.47813287 31.21847723 -8.41796875 27.28515625 C-8.15660881 26.30693153 -8.15660881 26.30693153 -7.88996887 25.3089447 C-7.51973984 23.93022931 -7.14542362 22.5526059 -6.76733398 21.17602539 C-6.19126693 19.07623066 -5.62878971 16.97315623 -5.06835938 14.86914062 C-2.04627563 3.67120891 -2.04627563 3.67120891 0 0 Z " fill="#F9EDD9" transform="translate(145,388)"/>
<path d="M0 0 C0.33 0 0.66 0 1 0 C1 9.9 1 19.8 1 30 C0.34 29.67 -0.32 29.34 -1 29 C-1.6328125 26.48828125 -1.6328125 26.48828125 -2.125 23.3125 C-2.29257813 22.27738281 -2.46015625 21.24226562 -2.6328125 20.17578125 C-2.99028975 17.08398337 -3.06525778 14.10906723 -3 11 C-2.34 11 -1.68 11 -1 11 C-0.67 7.37 -0.34 3.74 0 0 Z " fill="#DDBC8A" transform="translate(121,662)"/>
<path d="M0 0 C3.2614415 3.02848139 5.57436244 6.28068908 8 10 C8.66 10.66 9.32 11.32 10 12 C11.2708441 14.05096621 12.47801908 16.13274154 13.68359375 18.22265625 C14.96398046 20.3069584 14.96398046 20.3069584 18 21 C18.33333333 22.33333333 18.66666667 23.66666667 19 25 C20.28062485 26.7074998 21.6072711 28.38263741 23 30 C22.67 30.66 22.34 31.32 22 32 C15.90950555 25.12798193 10.47428287 18.01170314 5.375 10.375 C4.84229492 9.58109863 4.30958984 8.78719727 3.76074219 7.96923828 C0 2.25898463 0 2.25898463 0 0 Z " fill="#F6F0E0" transform="translate(190,728)"/>
<path d="M0 0 C1 2 1 2 0.3125 4.8125 C-1 8 -1 8 -2.75390625 10.0546875 C-5.89267849 14.17057318 -7.99252464 18.66958193 -10.25 23.3125 C-10.70890625 24.24384766 -11.1678125 25.17519531 -11.640625 26.13476562 C-12.76593013 28.42054168 -13.88551377 30.70893473 -15 33 C-16 30 -16 30 -15.07543945 27.55151367 C-14.59292725 26.59994385 -14.11041504 25.64837402 -13.61328125 24.66796875 C-13.08669922 23.62189453 -12.56011719 22.57582031 -12.01757812 21.49804688 C-11.45490234 20.40556641 -10.89222656 19.31308594 -10.3125 18.1875 C-9.76916016 17.10662109 -9.22582031 16.02574219 -8.66601562 14.91210938 C-6.03565409 9.73090146 -3.38901022 4.72482446 0 0 Z " fill="#FDF7EA" transform="translate(177,315)"/>
<path d="M0 0 C0.33 0 0.66 0 1 0 C2.37336867 7.54686087 3.2655846 15.03665385 3.75 22.6875 C3.80663818 23.47753418 3.86327637 24.26756836 3.92163086 25.08154297 C4.03164286 27.05146546 4.02515832 29.02716845 4 31 C3.34 31.66 2.68 32.32 2 33 C2 29.04 2 25.08 2 21 C1.34 21 0.68 21 0 21 C0 14.07 0 7.14 0 0 Z " fill="#FDF4E2" transform="translate(896,457)"/>
<path d="M0 0 C0.33 0 0.66 0 1 0 C1.0494186 5.21442276 1.08572831 10.42870934 1.10986328 15.64331055 C1.11992411 17.41742324 1.13357422 19.19151935 1.15087891 20.96557617 C1.17512378 23.51485284 1.18648218 26.06391037 1.1953125 28.61328125 C1.20563507 29.40712723 1.21595764 30.20097321 1.22659302 31.01887512 C1.2273811 34.88223043 1.19440369 36.70839446 -1 40 C-2.35439668 37.29120665 -2.06501451 34.99066732 -2 32 C-1.67 32 -1.34 32 -1 32 C-0.67 21.44 -0.34 10.88 0 0 Z " fill="#532E0C" transform="translate(683,464)"/>
<path d="M0 0 C1 2 1 2 0.28735352 4.52197266 C-0.09493408 5.5588623 -0.47722168 6.59575195 -0.87109375 7.6640625 C-1.48500977 9.34628906 -1.48500977 9.34628906 -2.11132812 11.0625 C-2.7677832 12.8259375 -2.7677832 12.8259375 -3.4375 14.625 C-3.87126953 15.80835938 -4.30503906 16.99171875 -4.75195312 18.2109375 C-5.82789724 21.14318081 -6.91084634 24.07264296 -8 27 C-9.39035371 22.82893888 -7.90230806 19.81793141 -6.5625 15.8125 C-6.31951172 15.06291016 -6.07652344 14.31332031 -5.82617188 13.54101562 C-5.22534944 11.69142499 -4.61370322 9.84535673 -4 8 C-4.99 8.66 -5.98 9.32 -7 10 C-5.33248852 6.05860922 -2.77289351 3.2107188 0 0 Z " fill="#E0C08D" transform="translate(178,405)"/>
<path d="M0 0 C-6.03901239 2.59851735 -12.18250225 4.8008531 -18.4375 6.8125 C-19.48454102 7.15897583 -19.48454102 7.15897583 -20.55273438 7.51245117 C-25.64688678 9.11770441 -25.64688678 9.11770441 -29 8 C-27.04783565 6.04783565 -25.46800047 5.15173355 -23 4 C-23 4.66 -23 5.32 -23 6 C-22.40985107 5.7827124 -21.81970215 5.5654248 -21.21166992 5.34155273 C-18.54032004 4.36401163 -15.8640783 3.4006279 -13.1875 2.4375 C-12.25873047 2.09525391 -11.32996094 1.75300781 -10.37304688 1.40039062 C-9.48037109 1.08134766 -8.58769531 0.76230469 -7.66796875 0.43359375 C-6.84578857 0.13509521 -6.0236084 -0.16340332 -5.17651367 -0.47094727 C-3 -1 -3 -1 0 0 Z " fill="#F9F2E1" transform="translate(651,878)"/>
<path d="M0 0 C-1.2065625 0.4640625 -1.2065625 0.4640625 -2.4375 0.9375 C-5.16111606 2.70576915 -5.16111606 2.70576915 -5.5546875 5.203125 C-5.79037673 7.47431216 -5.94736564 9.71758269 -6 12 C-8.64465038 8.8745041 -9.84414715 5.91211733 -11 2 C-3.57142857 -1.57142857 -3.57142857 -1.57142857 0 0 Z " fill="#FAF1DC" transform="translate(710,617)"/>
<path d="M0 0 C-2.39602374 2.39602374 -3.65161648 2.48831477 -6.9375 3.0625 C-9.75113142 3.56389824 -12.28110509 4.0937017 -15 5 C-17.39490986 5.06970052 -19.79167691 5.08448003 -22.1875 5.0625 C-23.45980469 5.05347656 -24.73210938 5.04445313 -26.04296875 5.03515625 C-27.50669922 5.01775391 -27.50669922 5.01775391 -29 5 C-29 4.67 -29 4.34 -29 4 C-25.10529437 3.32663096 -21.20907067 2.66248416 -17.3125 2 C-16.20970703 1.80921875 -15.10691406 1.6184375 -13.97070312 1.421875 C-12.90400391 1.24140625 -11.83730469 1.0609375 -10.73828125 0.875 C-9.75899658 0.70742188 -8.77971191 0.53984375 -7.77075195 0.3671875 C-5.14088643 0.01867065 -2.64876878 -0.06764613 0 0 Z " fill="#86300E" transform="translate(595,895)"/>
<path d="M0 0 C0.33 0.66 0.66 1.32 1 2 C-0.98 2.66 -2.96 3.32 -5 4 C-5 4.66 -5 5.32 -5 6 C-0.38 6 4.24 6 9 6 C9 6.33 9 6.66 9 7 C1.74 7 -5.52 7 -13 7 C-10.63456284 4.63456284 -8.42932795 3.72458677 -5.375 2.375 C-4.37210938 1.92898438 -3.36921875 1.48296875 -2.3359375 1.0234375 C-1.56507813 0.68570312 -0.79421875 0.34796875 0 0 Z " fill="#F46908" transform="translate(665,342)"/>
<path d="M0 0 C3.97782062 3.5988428 5.88828563 8.26322824 8.25 13 C8.72179687 13.91523438 9.19359375 14.83046875 9.6796875 15.7734375 C10.34097656 17.09214844 10.34097656 17.09214844 11.015625 18.4375 C11.42071289 19.24058594 11.82580078 20.04367187 12.24316406 20.87109375 C13 23 13 23 12 26 C9.83624952 23.83624952 9.29638582 22.46125629 8.25 19.625 C6.23238203 14.38225026 3.76436731 9.4483887 1.171875 4.46875 C0 2 0 2 0 0 Z " fill="#FEF7E9" transform="translate(854,328)"/>
<path d="M0 0 C6.76594019 -0.11381955 13.28837062 0.11978631 20 1 C16.89914429 3.06723714 16.27068319 3.24497423 12.76953125 3.1953125 C11.56586914 3.18564453 11.56586914 3.18564453 10.33789062 3.17578125 C9.50451172 3.15902344 8.67113281 3.14226563 7.8125 3.125 C6.96751953 3.11597656 6.12253906 3.10695313 5.25195312 3.09765625 C3.16784757 3.07410703 1.08388783 3.03823647 -1 3 C-0.67 2.01 -0.34 1.02 0 0 Z " fill="#D75907" transform="translate(623,596)"/>
<path d="M0 0 C2.43838344 8.13414933 -0.22961301 15.73981296 -4 23 C-4.33 23 -4.66 23 -5 23 C-4.44636539 14.97229811 -2.34312056 7.66145933 0 0 Z " fill="#FDF0DB" transform="translate(920,605)"/>
<path d="M0 0 C0.52207031 0.59554687 1.04414062 1.19109375 1.58203125 1.8046875 C4.42868546 4.38921039 7.15959001 5.61586045 10.6875 7.125 C16.89518414 9.79036827 16.89518414 9.79036827 18 12 C12.34880296 11.5097542 8.40295481 9.25848055 3.625 6.4375 C2.88894531 6.01275391 2.15289063 5.58800781 1.39453125 5.15039062 C-0.40839699 4.10843859 -2.20487053 3.05533146 -4 2 C-3.34 1.67 -2.68 1.34 -2 1 C-1.34 1.33 -0.68 1.66 0 2 C0 1.34 0 0.68 0 0 Z " fill="#FDEEDB" transform="translate(702,136)"/>
<path d="M0 0 C0.66 0.33 1.32 0.66 2 1 C0.7934375 1.37125 0.7934375 1.37125 -0.4375 1.75 C-3.171081 2.72238859 -3.171081 2.72238859 -3.8125 5.125 C-3.874375 5.74375 -3.93625 6.3625 -4 7 C-4.86625 7.12375 -5.7325 7.2475 -6.625 7.375 C-9.89513853 7.98058121 -12.87256899 8.88306035 -16 10 C-12.96086531 6.63052458 -9.93142307 4.69577825 -5.875 2.6875 C-4.29332031 1.88892578 -4.29332031 1.88892578 -2.6796875 1.07421875 C-1.79539062 0.71972656 -0.91109375 0.36523438 0 0 Z " fill="#FDEFDC" transform="translate(715,881)"/>
<path d="M0 0 C1.2989839 0.90626784 2.58893167 1.82549537 3.875 2.75 C4.59429687 3.26046875 5.31359375 3.7709375 6.0546875 4.296875 C8.12440308 6.10891515 8.84754543 7.54143026 10 10 C11.4810879 11.7203374 11.4810879 11.7203374 13.125 13.25 C14.07375 14.1575 15.0225 15.065 16 16 C15.67 16.66 15.34 17.32 15 18 C3.59778598 6.79704797 3.59778598 6.79704797 0 2 C0 1.34 0 0.68 0 0 Z " fill="#F8F5E6" transform="translate(219,767)"/>
<path d="M0 0 C1 3 1 3 0.13671875 5.078125 C-1.43296095 7.43052908 -2.78635998 9.22652392 -5 11 C-8.5513695 11.56624003 -11.61170925 11.18386062 -15 10 C-16.80078125 8.42578125 -16.80078125 8.42578125 -18 7 C-17.33613281 7.10699219 -16.67226562 7.21398437 -15.98828125 7.32421875 C-10.43409807 8.11680861 -10.43409807 8.11680861 -5.0625 6.875 C-2.77077507 4.7916137 -1.41040553 2.74657919 0 0 Z " fill="#F9F3E3" transform="translate(145,765)"/>
<path d="M0 0 C1.88310888 3.52862926 3.25469948 7.18319711 4.625 10.9375 C5.29402344 12.74541016 5.29402344 12.74541016 5.9765625 14.58984375 C6.89337068 17.64470461 7.22713778 19.84995758 7 23 C6.34 23 5.68 23 5 23 C4.85304687 22.18208984 4.85304687 22.18208984 4.703125 21.34765625 C3.84336186 17.01178178 2.74824352 13.2353543 0.8125 9.25 C-0.58032724 6.31529759 -1.0211645 5.25926513 -0.75 1.9375 C-0.5025 1.298125 -0.255 0.65875 0 0 Z " fill="#D3490F" transform="translate(150,642)"/>
<path d="M0 0 C-0.969375 0.268125 -1.93875 0.53625 -2.9375 0.8125 C-3.948125 1.204375 -4.95875 1.59625 -6 2 C-6.33 2.99 -6.66 3.98 -7 5 C-9.6739124 5.89130413 -12.23723823 6.47731534 -15 7 C-15 6.01 -15 5.02 -15 4 C-13.06767179 3.13419713 -11.12892806 2.28270059 -9.1875 1.4375 C-8.10855469 0.96183594 -7.02960937 0.48617188 -5.91796875 -0.00390625 C-3 -1 -3 -1 0 0 Z " fill="#FAEFDB" transform="translate(732,400)"/>
<path d="M0 0 C0.33 0.66 0.66 1.32 1 2 C0.50628906 2.67546875 0.01257813 3.3509375 -0.49609375 4.046875 C-1.45708984 5.38492187 -1.45708984 5.38492187 -2.4375 6.75 C-3.07558594 7.63171875 -3.71367187 8.5134375 -4.37109375 9.421875 C-5.84978647 11.76225196 -6.38855412 13.36607926 -7 16 C-9.0625 17.25 -9.0625 17.25 -11 18 C-9.51971645 13.81490516 -7.42574276 10.41688407 -4.9375 6.75 C-4.22464844 5.69296875 -3.51179687 4.6359375 -2.77734375 3.546875 C-1 1 -1 1 0 0 Z " fill="#FDF4E3" transform="translate(197,284)"/>
<path d="M0 0 C5.27749285 0.53851968 9.25645564 1.77343836 14 4 C13.67 4.66 13.34 5.32 13 6 C8.02487016 6 5.36636409 5.25557781 1.6875 1.875 C1.130625 1.25625 0.57375 0.6375 0 0 Z M0 2 C2 3 2 3 2 3 Z " fill="#FEF0D9" transform="translate(640,146)"/>
<path d="M0 0 C0.33 0 0.66 0 1 0 C1.05423638 1.91635217 1.09289963 3.83314925 1.125 5.75 C1.14820312 6.81734375 1.17140625 7.8846875 1.1953125 8.984375 C1.00487687 11.92470106 0.52670104 13.52361878 -1 16 C-1.66 15.34 -2.32 14.68 -3 14 C-2.9765625 11.8359375 -2.9765625 11.8359375 -2.625 9.375 C-2.51414062 8.55773437 -2.40328125 7.74046875 -2.2890625 6.8984375 C-2.19367188 6.27195312 -2.09828125 5.64546875 -2 5 C-1.67 5 -1.34 5 -1 5 C-0.67 3.35 -0.34 1.7 0 0 Z " fill="#C4A072" transform="translate(120,661)"/>
<path d="M0 0 C2.39602374 2.39602374 2.48831477 3.65161648 3.0625 6.9375 C3.56389824 9.75113142 4.0937017 12.28110509 5 15 C4.01 16.485 4.01 16.485 3 18 C2.49095343 16.12743583 1.99317545 14.25180659 1.5 12.375 C1.08234375 10.80878906 1.08234375 10.80878906 0.65625 9.2109375 C0.00881404 6.04312582 -0.1161292 3.22258533 0 0 Z " fill="#FDF3E0" transform="translate(921,422)"/>
<path d="M0 0 C2.14201526 3.21302289 2.65325876 4.26709281 2 8 C-0.5 9.8125 -0.5 9.8125 -3 11 C-2.53199289 6.94393835 -2.12046792 3.53411321 0 0 Z " fill="#FEEFD8" transform="translate(149,376)"/>
<path d="M0 0 C2.56616632 3.84924948 2.55097676 6.4349304 3 11 C-1.62 11 -6.24 11 -11 11 C-11 10.67 -11 10.34 -11 10 C-5.06 9.505 -5.06 9.505 1 9 C0.67 6.03 0.34 3.06 0 0 Z " fill="#F46808" transform="translate(537,272)"/>
<path d="M0 0 C0.66 0.33 1.32 0.66 2 1 C-2.33333333 5.33333333 -6.66666667 9.66666667 -11 14 C-11.66 13.67 -12.32 13.34 -13 13 C-8.71 8.71 -4.42 4.42 0 0 Z " fill="#2A1002" transform="translate(324,223)"/>
<path d="M0 0 C0.66 0.33 1.32 0.66 2 1 C0.6744419 4.62276315 -0.94346955 7.63505348 -3.125 10.8125 C-3.66382813 11.60269531 -4.20265625 12.39289063 -4.7578125 13.20703125 C-5.37269531 14.09455078 -5.37269531 14.09455078 -6 15 C-6.5534764 12.92446352 -7 11.15634036 -7 9 C-6.401875 8.814375 -5.80375 8.62875 -5.1875 8.4375 C-1.90018201 6.27726247 -1.35145313 3.64892345 0 0 Z " fill="#FDF3E0" transform="translate(171,264)"/>
<path d="M0 0 C4.95 0.33 9.9 0.66 15 1 C15.33 2.32 15.66 3.64 16 5 C14.824375 4.690625 13.64875 4.38125 12.4375 4.0625 C9.60532892 3.34185861 6.98323931 2.87088753 4.0625 2.5 C2.5465625 2.2525 2.5465625 2.2525 1 2 C0.67 1.34 0.34 0.68 0 0 Z " fill="#F06609" transform="translate(499,595)"/>
<path d="M0 0 C0.99 0.66 1.98 1.32 3 2 C-0.96 5.96 -4.92 9.92 -9 14 C-9 11 -9 11 -7.28515625 9.0625 C-6.55167969 8.381875 -5.81820312 7.70125 -5.0625 7 C-1.79342946 3.99859051 -1.79342946 3.99859051 0 0 Z " fill="#FDF9EB" transform="translate(219,209)"/>
<path d="M0 0 C-1.32 0.33 -2.64 0.66 -4 1 C-4 1.66 -4 2.32 -4 3 C-7.96 3.66 -11.92 4.32 -16 5 C-12.7890816 2.5918112 -11.05434604 1.44949547 -7.4375 0.25 C-6.67308594 -0.01296875 -5.90867187 -0.2759375 -5.12109375 -0.546875 C-3 -1 -3 -1 0 0 Z " fill="#FDF2E0" transform="translate(663,907)"/>
<path d="M0 0 C-1.43409972 3.35861695 -3.19369321 5.35874939 -5.9375 7.75 C-6.62714844 8.36359375 -7.31679688 8.9771875 -8.02734375 9.609375 C-10 11 -10 11 -13 11 C-11.21427748 9.16052663 -9.42197551 7.32842259 -7.625 5.5 C-7.11710937 4.97535156 -6.60921875 4.45070313 -6.0859375 3.91015625 C-2.2265625 0 -2.2265625 0 0 0 Z " fill="#FDF8E8" transform="translate(379,753)"/>
<path d="M0 0 C0.33 0 0.66 0 1 0 C1.33 3.96 1.66 7.92 2 12 C0.02 11.34 -1.96 10.68 -4 10 C-3.525625 9.649375 -3.05125 9.29875 -2.5625 8.9375 C-0.32126175 6.15836457 -0.32882342 3.4855283 0 0 Z " fill="#ECDFC6" transform="translate(299,524)"/>
<path d="M0 0 C0.33 0.66 0.66 1.32 1 2 C-0.07674702 4.28258633 -1.19546116 6.4356434 -2.4375 8.625 C-2.77587891 9.23601562 -3.11425781 9.84703125 -3.46289062 10.4765625 C-4.30146192 11.988353 -5.14982577 13.49470399 -6 15 C-6.66 15 -7.32 15 -8 15 C-8 14.01 -8 13.02 -8 12 C-7.34 11.67 -6.68 11.34 -6 11 C-4.90287919 9.17809731 -3.86908033 7.31760845 -2.875 5.4375 C-2.33617187 4.42558594 -1.79734375 3.41367187 -1.2421875 2.37109375 C-0.62730469 1.19740234 -0.62730469 1.19740234 0 0 Z " fill="#FDEFDA" transform="translate(145,309)"/>
<path d="M0 0 C0.66 0.33 1.32 0.66 2 1 C1.67 1.763125 1.34 2.52625 1 3.3125 C-0.17436686 5.99069135 -0.17436686 5.99069135 0 9 C-1.65 9.66 -3.3 10.32 -5 11 C-4.46884894 6.48521602 -2.63379708 3.65333143 0 0 Z " fill="#FEF0DC" transform="translate(184,303)"/>
<path d="M0 0 C-2.48434437 2.34290892 -3.77731593 2.97982934 -7.234375 3.29296875 C-8.39453125 3.25816406 -9.5546875 3.22335937 -10.75 3.1875 C-11.92046875 3.16042969 -13.0909375 3.13335937 -14.296875 3.10546875 C-15.18890625 3.07066406 -16.0809375 3.03585937 -17 3 C-11.64153053 -0.57231298 -6.234225 -0.12223971 0 0 Z " fill="#311D04" transform="translate(482,289)"/>
<path d="M0 0 C0.66 0.33 1.32 0.66 2 1 C-1.28355362 4.67758005 -4.62778237 6.81389118 -9 9 C-9.66 8.67 -10.32 8.34 -11 8 C-7.37 5.36 -3.74 2.72 0 0 Z " fill="#FEF6E6" transform="translate(752,858)"/>
<path d="M0 0 C0.66 0.33 1.32 0.66 2 1 C0.6875 3.5 0.6875 3.5 -1 6 C-1.99 6 -2.98 6 -4 6 C-6.67398476 7.93897879 -6.67398476 7.93897879 -9 10 C-7.61811547 6.78956118 -6.07578097 4.95063635 -3.375 2.75 C-2.74335938 2.22921875 -2.11171875 1.7084375 -1.4609375 1.171875 C-0.73777344 0.59179688 -0.73777344 0.59179688 0 0 Z " fill="#FDF5E4" transform="translate(263,214)"/>
<path d="M0 0 C0.99 0.33 1.98 0.66 3 1 C-2 7.57142857 -2 7.57142857 -7 9 C-6.02180976 7.68677212 -5.0424189 6.37443848 -4.0625 5.0625 C-3.51722656 4.33160156 -2.97195313 3.60070312 -2.41015625 2.84765625 C-1 1 -1 1 0 0 Z " fill="#EA6309" transform="translate(798,779)"/>
<path d="M0 0 C-2.96832339 2.52857178 -5.16301525 3.42445229 -9 4 C-10.33542939 4.32483418 -11.66961551 4.6550855 -13 5 C-13 4.34 -13 3.68 -13 3 C-11.5903653 2.29819469 -10.17192359 1.61406042 -8.75 0.9375 C-7.96109375 0.55464844 -7.1721875 0.17179688 -6.359375 -0.22265625 C-3.74006478 -1.08564091 -2.55144824 -0.93045933 0 0 Z " fill="#FDF1DE" transform="translate(697,893)"/>
<path d="M0 0 C0.66 0.33 1.32 0.66 2 1 C2.33 1.99 2.66 2.98 3 4 C3.33 4.66 3.66 5.32 4 6 C3.34 6.66 2.68 7.32 2 8 C0 6.75 0 6.75 -2 5 C-2 3.68 -2 2.36 -2 1 C-1.34 0.67 -0.68 0.34 0 0 Z " fill="#FBEDD3" transform="translate(283,820)"/>
<path d="M0 0 C0.33 0.99 0.66 1.98 1 3 C-1.36595933 5.61500768 -3.86049226 7.38999603 -7 9 C-7.66 8.67 -8.32 8.34 -9 8 C-6.03 5.36 -3.06 2.72 0 0 Z " fill="#371908" transform="translate(277,792)"/>
<path d="M0 0 C0.33 0.66 0.66 1.32 1 2 C1.99 2.33 2.98 2.66 4 3 C3.67 5.64 3.34 8.28 3 11 C0.43383368 7.15075052 0.44902324 4.5650696 0 0 Z " fill="#FEF2DC" transform="translate(915,397)"/>
<path d="M0 0 C0.66 0.33 1.32 0.66 2 1 C-0.97 4.3 -3.94 7.6 -7 11 C-7 7.22089522 -6.00296038 6.53893899 -3.5 3.8125 C-2.8503125 3.09707031 -2.200625 2.38164062 -1.53125 1.64453125 C-1.0259375 1.10183594 -0.520625 0.55914062 0 0 Z " fill="#FDF2E1" transform="translate(218,258)"/>
<path d="M0 0 C3.63195496 1.21065165 4.42896192 2.53691126 6.6875 5.5625 C7.31011719 6.38878906 7.93273437 7.21507812 8.57421875 8.06640625 C9.04472656 8.70449219 9.51523437 9.34257812 10 10 C9.67 10.66 9.34 11.32 9 12 C7.49405319 10.38050958 5.99539332 8.75424026 4.5 7.125 C3.6646875 6.22007812 2.829375 5.31515625 1.96875 4.3828125 C0 2 0 2 0 0 Z " fill="#FDF1E1" transform="translate(831,240)"/>
<path d="M0 0 C0.33 0.99 0.66 1.98 1 3 C-1.97 5.475 -1.97 5.475 -5 8 C-5.66 7.34 -6.32 6.68 -7 6 C-4.69 4.02 -2.38 2.04 0 0 Z " fill="#3C1D07" transform="translate(347,204)"/>
<path d="M0 0 C3.93673644 1.31224548 6.22719294 2.91910327 9 6 C1.42857143 4.14285714 1.42857143 4.14285714 -1 1 C-0.67 0.67 -0.34 0.34 0 0 Z " fill="#953E10" transform="translate(281,827)"/>
<path d="M0 0 C0.66 0.33 1.32 0.66 2 1 C1.54625 1.598125 1.0925 2.19625 0.625 2.8125 C-0.63295913 4.50590652 -1.82984724 6.24477086 -3 8 C-5.125 9.1875 -5.125 9.1875 -7 10 C-5.33248852 6.05860922 -2.77289351 3.2107188 0 0 Z " fill="#FDF2DF" transform="translate(834,783)"/>
<path d="M0 0 C1 4 1 4 0.3125 6.1875 C-1 8 -1 8 -5 9 C-3.35 6.03 -1.7 3.06 0 0 Z " fill="#C14D11" transform="translate(850,707)"/>
<path d="M0 0 C1 3 1 3 0 5.0625 C-0.33 5.701875 -0.66 6.34125 -1 7 C-0.67 7.66 -0.34 8.32 0 9 C-0.66 9 -1.32 9 -2 9 C-2 9.66 -2 10.32 -2 11 C-3.32 11.33 -4.64 11.66 -6 12 C-4.02 8.04 -2.04 4.08 0 0 Z " fill="#FAF3DF" transform="translate(655,477)"/>
<path d="M0 0 C0 3.10551666 -0.5393715 4.35261084 -2 7 C-2.66 7 -3.32 7 -4 7 C-4.33 7.99 -4.66 8.98 -5 10 C-5.66 9.34 -6.32 8.68 -7 8 C-4.69 5.36 -2.38 2.72 0 0 Z " fill="#FEF3E1" transform="translate(205,274)"/>
<path d="M0 0 C1 2 1 2 0.51171875 4.12890625 C0.23972656 4.93199219 -0.03226563 5.73507812 -0.3125 6.5625 C-0.57675781 7.36816406 -0.84101562 8.17382812 -1.11328125 9.00390625 C-2 11 -2 11 -4 12 C-3.45660208 7.43545749 -2.20536179 4.0271824 0 0 Z " fill="#FDF2DB" transform="translate(902,666)"/>
<path d="M0 0 C1 2 1 2 0.25 4.9375 C-0.89726872 7.74830836 -1.69701628 9.1157406 -4 11 C-4.66 10.67 -5.32 10.34 -6 10 C-4.02 6.7 -2.04 3.4 0 0 Z " fill="#FDF1DE" transform="translate(177,315)"/>
<path d="M0 0 C2.64 0.33 5.28 0.66 8 1 C8 1.66 8 2.32 8 3 C9.32 3.66 10.64 4.32 12 5 C7.43545749 4.45660208 4.0271824 3.20536179 0 1 C0 0.67 0 0.34 0 0 Z " fill="#FDEEDA" transform="translate(662,121)"/>
<path d="M0 0 C1.875 0.625 1.875 0.625 4 2 C5.25 5.125 5.25 5.125 6 8 C5.01 7.67 4.02 7.34 3 7 C3 6.01 3 5.02 3 4 C1.68 3.34 0.36 2.68 -1 2 C-0.67 1.34 -0.34 0.68 0 0 Z " fill="#542A0D" transform="translate(275,819)"/>
<path d="M0 0 C2.31 0.66 4.62 1.32 7 2 C6.38125 2.0825 5.7625 2.165 5.125 2.25 C2.81562433 2.81258459 2.81562433 2.81258459 1.75 5.0625 C1.5025 5.701875 1.255 6.34125 1 7 C0 6 0 6 -0.0625 2.9375 C-0.041875 1.968125 -0.02125 0.99875 0 0 Z " fill="#DCBA89" transform="translate(115,573)"/>
<path d="M0 0 C0 0.66 0 1.32 0 2 C-0.66 2 -1.32 2 -2 2 C-2 2.66 -2 3.32 -2 4 C-2.99 4.66 -3.98 5.32 -5 6 C-5.99 5.67 -6.98 5.34 -8 5 C-3.375 0 -3.375 0 0 0 Z " fill="#F1E1C9" transform="translate(807,561)"/>
<path d="M0 0 C0.66 0.33 1.32 0.66 2 1 C2 4.63 2 8.26 2 12 C1.67 12 1.34 12 1 12 C0.67 10.35 0.34 8.7 0 7 C-0.33 7 -0.66 7 -1 7 C-1.04254356 5.00045254 -1.04080783 2.99958364 -1 1 C-0.67 0.67 -0.34 0.34 0 0 Z " fill="#562D0C" transform="translate(299,506)"/>
<path d="M0 0 C0.33 0 0.66 0 1 0 C1.34833144 4.87664009 0.41685712 7.77050005 -2 12 C-3.15957207 8.52128379 -2.77456651 7.65780355 -1.5625 4.3125 C-1.13130859 3.10013672 -1.13130859 3.10013672 -0.69140625 1.86328125 C-0.46324219 1.24839844 -0.23507813 0.63351562 0 0 Z " fill="#FAF2E3" transform="translate(138,413)"/>
<path d="M0 0 C0.33 0.66 0.66 1.32 1 2 C-1.85276137 4.93200474 -4.65079784 7.64315404 -8 10 C-6.34908222 5.70761377 -3.26245434 3.1206085 0 0 Z " fill="#DC4205" transform="translate(199,235)"/>
<path d="M0 0 C1 2 1 2 0.4375 4.0625 C-1 6 -1 6 -4.125 6.75 C-5.548125 6.87375 -5.548125 6.87375 -7 7 C-4.78071806 4.09197539 -3.07030857 2.04687238 0 0 Z " fill="#FEF3DE" transform="translate(278,202)"/>
<path d="M0 0 C4.455 0.99 4.455 0.99 9 2 C9 2.99 9 3.98 9 5 C7.68445015 4.5504955 6.37261642 4.09010284 5.0625 3.625 C4.33160156 3.36976563 3.60070312 3.11453125 2.84765625 2.8515625 C1 2 1 2 0 0 Z " fill="#F7EEDC" transform="translate(780,783)"/>
<path d="M0 0 C1.485 0.99 1.485 0.99 3 2 C3.1875 5.125 3.1875 5.125 3 8 C2.01 8 1.02 8 0 8 C0 5.36 0 2.72 0 0 Z " fill="#522E0D" transform="translate(143,742)"/>
<path d="M0 0 C0.66 0.99 1.32 1.98 2 3 C1.401875 3.5775 0.80375 4.155 0.1875 4.75 C-1.7482684 6.74107607 -3.38909283 8.74472997 -5 11 C-4.46884894 6.48521602 -2.63379708 3.65333143 0 0 Z " fill="#311507" transform="translate(597,427)"/>
<path d="M0 0 C0.33 0.99 0.66 1.98 1 3 C-1.42797311 5.42797311 -4.1299269 7.1282132 -7 9 C-5.44499019 5.18315774 -2.96404505 2.80804268 0 0 Z " fill="#DD4403" transform="translate(208,225)"/>
<path d="M0 0 C-3.51187196 2.40814077 -5.72656908 3.36629408 -10 3 C-10 2.34 -10 1.68 -10 1 C-3.71428571 -1.42857143 -3.71428571 -1.42857143 0 0 Z " fill="#FDF2DE" transform="translate(405,140)"/>
<path d="M0 0 C3.93673644 1.31224548 6.22719294 2.91910327 9 6 C2.35384615 4.52307692 2.35384615 4.52307692 0.5625 1.875 C0.376875 1.25625 0.19125 0.6375 0 0 Z " fill="#9E370B" transform="translate(294,836)"/>
<path d="M0 0 C2 3 2 3 2 7 C1.34 7 0.68 7 0 7 C-0.33 8.32 -0.66 9.64 -1 11 C-1.14285714 3.57142857 -1.14285714 3.57142857 0 0 Z " fill="#FBF5E2" transform="translate(153,617)"/>
<path d="M0 0 C0 0.99 0 1.98 0 3 C-2 4.6875 -2 4.6875 -4 6 C-4.66 5.34 -5.32 4.68 -6 4 C-4.02 2.68 -2.04 1.36 0 0 Z " fill="#F9F0DC" transform="translate(346,778)"/>
<path d="M0 0 C-0.61875 0.28875 -1.2375 0.5775 -1.875 0.875 C-4.13325765 1.93720042 -4.13325765 1.93720042 -6 4 C-6 3.34 -6 2.68 -6 2 C-6.99 2.33 -7.98 2.66 -9 3 C-9 2.34 -9 1.68 -9 1 C-5.57367167 -0.61798838 -3.61944899 -1.34053666 0 0 Z " fill="#FAF2DF" transform="translate(734,609)"/>
</svg>
